<?xml version="1.0" encoding="UTF-8" standalone="no"?>
<!DOCTYPE svg PUBLIC "-//W3C//DTD SVG 1.1//EN" "http://www.w3.org/Graphics/SVG/1.1/DTD/svg11.dtd">
<svg xmlns="http://www.w3.org/2000/svg" xmlns:xlink="http://www.w3.org/1999/xlink" version="1.1" width="311pt" height="325pt" viewBox="0 0 311 325">
<g enable-background="new">
<clipPath id="cp0">
<path transform="matrix(1,0,0,-1,-71,16251)" d="M 0 0 L 453.543 0 L 453.543 16322.79 L 0 16322.79 Z "/>
</clipPath>
<g clip-path="url(#cp0)">
<symbol id="font_1_31">
<path d="M .093 .525 L .093 .124000009 C .093 .041 .076000008 .036000004 .006 .033 C 0 .027 0 .006 .006 0 C .051000004 .001 .10000001 .002 .13599999 .002 C .171 .002 .23 .001 .28 0 C .286 .006 .286 .027 .28 .033 C .202 .037 .178 .041 .178 .124000009 L .178 .29400004 C .2 .28700004 .224 .284 .259 .284 C .441 .284 .49600003 .40300004 .49600003 .48800005 C .49600003 .547 .45700003 .654 .272 .654 C .234 .654 .175 .647 .135 .647 C .098000008 .647 .046000005 .648 .006 .649 C 0 .643 0 .622 .006 .616 C .076000008 .613 .093 .608 .093 .525 M .178 .556 C .178 .585 .193 .62 .26500003 .62 C .33400003 .62 .40300004 .597 .40300004 .47000004 C .40300004 .36200003 .351 .31800003 .254 .31800003 C .229 .31800003 .189 .32000003 .178 .323 L .178 .556 Z "/>
</symbol>
<use xlink:href="#font_1_31" transform="matrix(37.85803,0,0,-37.85803,7.085437,48.997594)"/>
<path transform="matrix(1,0,0,-1,32.82,7.123047)" stroke-width=".388" stroke-linecap="butt" stroke-miterlimit="10" stroke-linejoin="miter" fill="none" stroke="#000000" d="M 0 0 L 277.724 0 "/>
<path transform="matrix(1,0,0,-1,32.82,15.263672)" stroke-width=".388" stroke-linecap="butt" stroke-miterlimit="10" stroke-linejoin="miter" fill="none" stroke="#000000" d="M 0 0 L 277.724 0 "/>
<path transform="matrix(1,0,0,-1,32.82,23.405274)" stroke-width=".388" stroke-linecap="butt" stroke-miterlimit="10" stroke-linejoin="miter" fill="none" stroke="#000000" d="M 0 0 L 277.724 0 "/>
<path transform="matrix(1,0,0,-1,32.82,31.544922)" stroke-width=".388" stroke-linecap="butt" stroke-miterlimit="10" stroke-linejoin="miter" fill="none" stroke="#000000" d="M 0 0 L 277.724 0 "/>
<symbol id="font_2_d">
<path d="M 0 .106000009 L 0 .432 C 0 .46533335 .009666667 .49066673 .029000001 .508 C .048333337 .526 .07466667 .535 .108 .535 C .12666668 .5343334 .14100002 .52933338 .15100001 .52000007 C .16100002 .5113334 .16600001 .5 .16600001 .486 L .16600001 .31 L .156 .319 C .13666667 .33633337 .11200001 .345 .082 .345 C .054 .345 .033000005 .332 .019000002 .306 C .013000001 .29466669 .010000001 .282 .010000001 .268 C .010000001 .2546667 .013333335 .24200003 .020000002 .23000002 C .02666667 .21866668 .035333337 .20966669 .046000005 .20300001 C .057333337 .19633335 .06933334 .19300002 .082 .19300002 C .11266667 .19300002 .13733334 .20100002 .156 .21700001 L .16600001 .22700002 L .16600001 .050000006 C .16600001 .039333337 .163 .030333335 .157 .023000002 C .15166667 .0150000019 .14466667 .009333335 .136 .006000001 C .12733335 .0020000004 .118 0 .108 0 C .07466667 .000666668 .048333337 .010333336 .029000001 .029000003 C .009666667 .047000003 0 .07266667 0 .106000009 Z "/>
</symbol>
<use xlink:href="#font_2_d" transform="matrix(25.84303,0,0,-25.84303,32.82,14.036651)"/>
<symbol id="font_1_22">
<path d="M .154 .081 L .209 .22600001 C .214 .23900002 .22000002 .24300002 .244 .24300002 L .45500005 .24300002 L .513 .074 C .52500006 .040000004 .48700006 .036000004 .43900005 .033 C .43300004 .027 .43300004 .006 .43900005 0 C .47600005 .001 .531 .002 .57000008 .002 C .61100009 .002 .64900007 .001 .6840001 0 C .69000008 .006 .69000008 .027 .6840001 .033 C .64500007 .037 .61100009 .040000004 .59400007 .088 L .38800005 .66 C .37300004 .651 .34600003 .64 .33300004 .64 L .106000009 .104 C .08 .042000005 .050000006 .036000004 .006 .033 C 0 .027 0 .006 .006 0 C .032 .001 .065 .002 .095 .002 C .136 .002 .186 .001 .223 0 C .229 .006 .229 .027 .223 .033 C .185 .036000004 .13800001 .040000004 .154 .081 M .26200003 .28500004 C .24000001 .28500004 .23300001 .28800003 .237 .298 L .33900003 .557 L .34500004 .557 L .43900005 .28500004 L .26200003 .28500004 Z "/>
</symbol>
<symbol id="font_1_e">
<path d="M .23100002 0 C .244 0 .25800003 .028000012 .25800003 .040000008 C .25800003 .049999998 .254 .060000019 .244 .060000019 L .025000003 .060000019 C .013 .060000019 0 .037000017 0 .019000009 C 0 .009000003 .006000001 0 .015000001 0 L .23100002 0 Z "/>
</symbol>
<use xlink:href="#font_1_22" transform="matrix(11.95517,0,0,-11.95517,41.551958,48.945787)"/>
<use xlink:href="#font_1_e" transform="matrix(11.95517,0,0,-11.95517,49.88471,46.25587)"/>
<symbol id="font_2_40">
<path d="M .082 .20500002 C .10066667 .205 .116000007 .20333334 .128 .2 C .14066667 .19666668 .14999999 .19133334 .156 .184 C .16266668 .17733334 .16600001 .16866668 .16600001 .158 L .16600001 0 C .14800002 .018666668 .120333347 .028000003 .083000008 .028 C .04566667 .028000003 .018000002 .018666668 0 0 L 0 .158 C 0 .18933334 .027333335 .205 .082 .20500002 Z "/>
</symbol>
<use xlink:href="#font_2_40" transform="matrix(25.84303,0,0,-25.84303,43.549005,22.072928)"/>
<symbol id="font_1_55">
<path d="M .018000002 .439 C .0040000008 .439 0 .42700003 0 .419 L 0 .40600003 C 0 .40100003 .0010000002 .4 .005000001 .4 L .064 .4 L .064 .099 C .064 .028 .095000009 0 .141 0 C .187 0 .23700002 .022 .27600003 .066 C .27400003 .076 .268 .082 .25800003 .083000008 C .232 .063 .202 .055000005 .176 .055000005 C .149 .055000005 .143 .085 .143 .14700002 L .143 .4 L .24700001 .4 C .257 .4 .271 .404 .271 .41300003 L .271 .433 C .271 .437 .268 .439 .263 .439 L .143 .439 L .143 .47800002 C .143 .54300007 .147 .583 .147 .583 C .147 .58900007 .14400001 .592 .139 .592 C .135 .592 .126 .588 .117000009 .583 C .10600001 .577 .09600001 .572 .083000008 .569 C .071 .565 .061000006 .56200006 .061000006 .555 C .061000006 .54300007 .064 .55 .064 .439 L .018000002 .439 Z "/>
</symbol>
<symbol id="font_1_46">
<path d="M .349 .103 C .312 .065000008 .28300003 .049000004 .22500003 .049000004 C .18900001 .049000004 .14700002 .07 .11600001 .12100001 C .096 .15400002 .08400001 .20000002 .08400001 .25800003 L .35000003 .256 C .36200003 .256 .36900003 .262 .36900003 .273 C .36900003 .357 .33900003 .447 .20000002 .447 C .113000009 .447 0 .364 0 .21200001 C 0 .15600002 .014000002 .102000009 .047000007 .064 C .08100001 .024 .128 0 .20000002 0 C .27600003 0 .33 .035 .37 .087000008 C .367 .097 .36100004 .102000009 .349 .103 M .087000008 .292 C .106000009 .405 .17600002 .414 .20000002 .414 C .238 .414 .28300003 .393 .28300003 .30900003 C .28300003 .3 .279 .29500003 .268 .29500003 L .087000008 .292 Z "/>
</symbol>
<symbol id="font_1_53">
<path d="M .15600002 .36 C .15400002 .40000005 .15300001 .42600004 .14800002 .43600003 C .14600002 .441 .14400001 .44400005 .136 .44400005 C .108 .43300004 .082 .42400003 .012999998 .41500003 C .011 .409 .012999998 .39300005 .014999999 .38700003 C .069 .38200004 .08 .37700004 .08 .319 L .08 .124000009 C .08 .041 .068 .037 .005999999 .033 C 0 .027 0 .006 .005999999 0 C .041 .001 .08 .002 .12 .002 C .16000001 .002 .20600002 .001 .24100001 0 C .24700003 .006 .24700003 .027 .24100001 .033 C .17100002 .038000004 .15900001 .041 .15900001 .124000009 L .15900001 .263 C .15900001 .289 .17100002 .312 .18300002 .33 C .19400002 .34600003 .21700002 .379 .22900002 .379 C .23800002 .379 .24700003 .37700004 .255 .36600004 C .262 .356 .274 .34300003 .291 .34300003 C .315 .34300003 .338 .36800004 .338 .39300005 C .338 .41200004 .32 .441 .278 .441 C .23100002 .441 .19000001 .397 .16700001 .358 C .16100002 .34700004 .15600002 .35500003 .15600002 .36 Z "/>
</symbol>
<use xlink:href="#font_1_55" transform="matrix(11.95517,0,0,-11.95517,53.745878,49.041429)"/>
<use xlink:href="#font_1_46" transform="matrix(11.95517,0,0,-11.95517,57.66718,49.041429)"/>
<use xlink:href="#font_1_53" transform="matrix(11.95517,0,0,-11.95517,62.807909,48.945787)"/>
<use xlink:href="#font_2_40" transform="matrix(25.84303,0,0,-25.84303,57.752,18.003592)"/>
<symbol id="font_1_4f">
<path d="M .16400002 .36 C .158 .35300002 .15200001 .351 .15200001 .36 C .15100001 .38700003 .14900002 .42600004 .14400001 .43600003 C .142 .441 .14000002 .44400005 .13200002 .44400005 C .104 .43300004 .078 .42400003 .009 .41500003 C .0069999995 .409 .009 .39300005 .011 .38700003 C .065 .38200004 .076 .37700004 .076 .319 L .076 .124000009 C .076 .042000005 .066 .038000004 .005999999 .033 C 0 .027 0 .006 .005999999 0 C .036 .001 .076 .002 .116000007 .002 C .15600002 .002 .18600002 .001 .21600002 0 C .22200002 .006 .22200002 .027 .21600002 .033 C .165 .038000004 .15500002 .042000005 .15500002 .124000009 L .15500002 .28800003 C .15500002 .30900003 .16400002 .321 .172 .33 C .21000001 .367 .255 .38900004 .294 .38900004 C .314 .38900004 .335 .37600003 .347 .35300002 C .357 .33300004 .359 .30600003 .359 .27600003 L .359 .124000009 C .359 .042000005 .349 .038000004 .297 .033 C .292 .027 .292 .006 .297 0 C .327 .001 .359 .002 .39900003 .002 C .439 .002 .47500003 .001 .50500008 0 C .51000007 .006 .51000007 .027 .50500008 .033 C .449 .038000004 .43800003 .042000005 .43800003 .124000009 L .43800003 .27300004 C .43800003 .328 .43400003 .37600003 .411 .40700004 C .39400003 .42900003 .363 .441 .328 .441 C .279 .441 .22300002 .42800004 .16400002 .36 Z "/>
</symbol>
<symbol id="font_1_50">
<path d="M 0 .21500002 C 0 .113000009 .068 0 .21000001 0 C .27400003 0 .323 .023000002 .35700003 .056000007 C .402 .1 .42200003 .16300002 .42200003 .22400002 C .42200003 .328 .365 .449 .21200001 .449 C .146 .449 .092 .42200003 .055 .379 C .019000002 .336 0 .278 0 .21500002 M .197 .414 C .283 .414 .336 .336 .336 .19200002 C .336 .066 .271 .035 .224 .035 C .12000001 .035 .086 .16100002 .086 .23800002 C .086 .32500003 .107 .414 .197 .414 Z "/>
</symbol>
<use xlink:href="#font_1_4f" transform="matrix(11.95517,0,0,-11.95517,71.782108,48.945787)"/>
<use xlink:href="#font_1_50" transform="matrix(11.95517,0,0,-11.95517,78.51287,49.041429)"/>
<use xlink:href="#font_2_40" transform="matrix(25.84303,0,0,-25.84303,78.89,18.003592)"/>
<symbol id="font_1_54">
<path d="M 0 .14800002 C .0040000008 .099 .007000003 .052000006 .007000003 .010000001 C .017000005 .012000001 .027000003 .013 .032000007 .013 C .039000006 .013 .045 .013 .052 .011000001 C .079 .0040000008 .10600001 0 .143 0 C .199 0 .30200003 .027000003 .30200003 .126 C .30200003 .19400002 .25300003 .23400001 .185 .259 C .125 .282 .085 .297 .085 .352 C .085 .393 .121000017 .416 .155 .416 C .17700002 .416 .23500002 .40800003 .248 .323 C .254 .317 .27400003 .31800003 .28 .324 C .28300003 .36 .285 .397 .286 .43 C .255 .435 .20700002 .449 .155 .449 C .08100001 .449 .014000002 .40100003 .014000002 .337 C .014000002 .264 .047000007 .23300001 .124000009 .20100002 C .20700002 .16700001 .22600001 .14600002 .22600001 .103 C .22600001 .054000006 .178 .033000005 .141 .033000005 C .102000009 .033000005 .080000009 .046000005 .07000001 .057000005 C .048 .08 .037 .124000009 .031000004 .14900002 C .025000006 .15500002 .006000001 .15400002 0 .14800002 Z "/>
</symbol>
<symbol id="font_1_d">
<path d="M .061 .22800002 C .030000005 .22800002 .008000001 .207 .008000001 .179 C .008000001 .148 .034000007 .138 .052000006 .135 C .07100001 .133 .088000018 .127 .088000018 .104 C .088000018 .083000008 .052000006 .037 0 .023999997 C 0 .013999999 .0020000004 .0069999995 .009 0 C .069000009 .0109999929 .127 .059 .127 .12900001 C .127 .18900001 .10100001 .22800002 .061 .22800002 Z "/>
</symbol>
<use xlink:href="#font_1_54" transform="matrix(11.95517,0,0,-11.95517,84.62185,49.041429)"/>
<use xlink:href="#font_1_55" transform="matrix(11.95517,0,0,-11.95517,89.00941,49.041429)"/>
<use xlink:href="#font_1_46" transform="matrix(11.95517,0,0,-11.95517,92.9307,49.041429)"/>
<use xlink:href="#font_1_53" transform="matrix(11.95517,0,0,-11.95517,98.07143,48.945787)"/>
<use xlink:href="#font_1_d" transform="matrix(11.95517,0,0,-11.95517,102.79372,50.511915)"/>
<use xlink:href="#font_2_40" transform="matrix(25.84303,0,0,-25.84303,93.015,18.003592)"/>
<symbol id="font_1_52">
<path d="M .31100003 .123 C .31100003 .040000008 .3 .036 .23900002 .033000009 C .23300001 .026999996 .23300001 .0059999974 .23900002 0 C .27400003 .001000002 .31100003 .002000004 .351 .002000004 C .39100004 .002000004 .42900003 .001000002 .462 0 C .46800003 .0059999974 .46800003 .026999996 .462 .033000009 C .40100003 .036 .39000003 .040000008 .39000003 .123 L .39000003 .651 C .39000003 .665 .38600005 .67600008 .37500004 .67600008 C .36800004 .67600008 .36200003 .66800007 .35400004 .657 C .34100003 .63900008 .337 .63600006 .32500003 .64400008 C .293 .66400006 .254 .67300006 .21200001 .67300006 C .09 .67300006 0 .573 0 .44100005 C 0 .34800003 .06300001 .224 .20700002 .224 C .23400003 .224 .26700003 .23000002 .284 .24000001 C .307 .25300003 .31100003 .25500003 .31100003 .23400001 L .31100003 .123 M .28700004 .60200008 C .307 .58000007 .31100003 .56500008 .31100003 .541 L .31100003 .31100003 C .31100003 .293 .31000004 .28800003 .29700003 .28100003 C .27400003 .26900003 .24700001 .268 .231 .268 C .17300001 .268 .08600001 .31 .08600001 .46100004 C .08600001 .56500008 .128 .63900008 .20800002 .63900008 C .238 .63900008 .26500003 .62700006 .28700004 .60200008 Z "/>
</symbol>
<symbol id="font_1_56">
<path d="M .19700001 .0029999996 C .23600002 .0029999996 .283 .023000002 .33200003 .063 C .337 .067 .34600003 .069000009 .347 .062000004 C .35 .037 .358 .0029999996 .358 .0029999996 C .366 0 .37100003 .0010000002 .377 .0029999996 C .39900003 .021000002 .43400003 .036000004 .49500004 .043 C .50100007 .049000004 .50100007 .064 .49500004 .07000001 C .43100003 .075 .42200003 .094 .42200003 .143 L .42200003 .33500005 C .42200003 .36500005 .426 .43800003 .426 .43800003 C .426 .44100005 .423 .44400005 .418 .44400005 C .41300003 .44300003 .398 .44200004 .38300003 .44200004 C .351 .44200004 .315 .44300003 .28100003 .44400005 C .275 .43800003 .275 .41700004 .28100003 .41100005 C .33 .40800003 .343 .39600004 .343 .33 L .343 .13700001 C .343 .118 .34100003 .11 .327 .098000008 C .29 .066 .252 .05 .22700002 .05 C .19700001 .05 .14700002 .064 .14700002 .153 L .14700002 .33500005 C .14700002 .36500005 .15100001 .43800003 .15100001 .43800003 C .15100001 .44100005 .14800002 .44400005 .143 .44400005 C .13800001 .44300003 .123 .44200004 .108 .44200004 C .076 .44200004 .04 .44300003 .005999999 .44400005 C 0 .43800003 0 .41700004 .005999999 .41100005 C .053999999 .40700004 .068 .39600004 .068 .33100004 L .068 .139 C .068 .07000001 .098000008 .0029999996 .19700001 .0029999996 Z "/>
</symbol>
<symbol id="font_1_4a">
<path d="M .157 .124000009 L .157 .323 C .157 .37300004 .161 .43700005 .161 .43700005 C .161 .441 .156 .44400005 .148 .44400005 C .120000008 .43300004 .08 .42400003 .011 .41500003 C .009 .409 .011 .39300005 .013 .38700003 C .068 .38200004 .07800001 .37600003 .07800001 .319 L .07800001 .124000009 C .07800001 .041 .067 .038000004 .006000001 .033 C 0 .027 0 .006 .006000001 0 C .039 .001 .07800001 .002 .118 .002 C .158 .002 .19600001 .001 .22900002 0 C .235 .006 .235 .027 .22900002 .033 C .168 .037 .157 .041 .157 .124000009 M .066 .601 C .066 .575 .09 .549 .11400001 .549 C .142 .549 .16600001 .576 .16600001 .597 C .16600001 .621 .14500001 .649 .118 .649 C .09400001 .649 .066 .625 .066 .601 Z "/>
</symbol>
<use xlink:href="#font_1_52" transform="matrix(11.95517,0,0,-11.95517,109.85444,51.719385)"/>
<use xlink:href="#font_1_56" transform="matrix(11.95517,0,0,-11.95517,115.68857,49.077295)"/>
<use xlink:href="#font_1_4a" transform="matrix(11.95517,0,0,-11.95517,122.08458,48.945787)"/>
<use xlink:href="#font_2_40" transform="matrix(25.84303,0,0,-25.84303,121.272,18.003592)"/>
<use xlink:href="#font_1_46" transform="matrix(11.95517,0,0,-11.95517,133.40534,49.041429)"/>
<use xlink:href="#font_1_54" transform="matrix(11.95517,0,0,-11.95517,138.88082,49.041429)"/>
<use xlink:href="#font_2_40" transform="matrix(25.84303,0,0,-25.84303,133.49,18.003592)"/>
<use xlink:href="#font_1_4a" transform="matrix(11.95517,0,0,-11.95517,147.78293,48.945787)"/>
<use xlink:href="#font_1_4f" transform="matrix(11.95517,0,0,-11.95517,150.97496,48.945787)"/>
<use xlink:href="#font_2_40" transform="matrix(25.84303,0,0,-25.84303,146.971,18.003592)"/>
<symbol id="font_1_44">
<path d="M .36100004 .101 C .35700003 .11 .349 .114 .34 .115 C .30600003 .071 .263 .049000004 .22 .049000004 C .14700002 .049000004 .086 .123 .086 .24000001 C .086 .35 .134 .416 .20000002 .416 C .259 .416 .26700003 .381 .27100004 .34600003 C .27400003 .319 .28800003 .31 .30900003 .31 C .33 .31 .358 .323 .358 .354 C .358 .409 .30100004 .449 .20500002 .449 C .106000009 .449 0 .36 0 .21800001 C 0 .089 .072000008 0 .19800002 0 C .25800003 0 .31100003 .019000002 .36100004 .101 Z "/>
</symbol>
<symbol id="font_1_a6">
<path d="M .22600001 .394 C .24900002 .37 .25800003 .33900003 .259 .26 C .172 .254 .106000009 .24100001 .06300001 .21500002 C .026999999 .19400002 0 .15200001 0 .112 C 0 .07 .015000001 .038000004 .049000008 .018000002 C .07100001 .0060000007 .10700001 0 .143 0 C .18 0 .231 .015000001 .277 .062000004 C .289 .074 .293 .078 .301 .069000009 C .32200004 .045 .361 0 .45200003 0 C .51800009 0 .57600006 .039 .6050001 .093 C .60200008 .098000008 .59400007 .108 .58500006 .109000008 C .55500009 .074 .52000007 .049000004 .466 .049000004 C .391 .049000004 .33200003 .13800001 .33200003 .22800002 C .5630001 .23100002 .609 .268 .609 .349 C .609 .38300003 .56500008 .449 .451 .449 C .39400003 .449 .342 .42400003 .30900003 .379 C .272 .446 .19500001 .449 .171 .449 C .089 .449 .011 .405 .011 .347 C .011 .327 .020000004 .30200003 .051000004 .30200003 C .076000008 .30200003 .09 .319 .09 .335 C .09 .342 .089 .349 .087 .35300002 C .08500001 .356 .08400001 .363 .08400001 .373 C .08400001 .402 .12200001 .416 .161 .416 C .18200001 .416 .211 .409 .22600001 .394 M .259 .22500001 C .259 .17500001 .25800003 .142 .254 .123 C .23900002 .083000008 .187 .042000005 .155 .042000005 C .09900001 .042000005 .07200001 .074 .07200001 .117000009 C .07200001 .14000002 .08400001 .16200002 .109 .18 C .14 .20300001 .19000001 .22000002 .259 .22500001 M .333 .263 C .34100003 .34800003 .38200004 .416 .45000003 .416 C .498 .416 .53300008 .37800003 .53300008 .34600003 C .53300008 .285 .48600004 .26500003 .333 .263 Z "/>
</symbol>
<use xlink:href="#font_1_44" transform="matrix(11.95517,0,0,-11.95517,162.18434,49.041429)"/>
<use xlink:href="#font_1_a6" transform="matrix(11.95517,0,0,-11.95517,167.32506,49.041429)"/>
<use xlink:href="#font_1_e" transform="matrix(11.95517,0,0,-11.95517,175.55022,46.25587)"/>
<use xlink:href="#font_2_40" transform="matrix(25.84303,0,0,-25.84303,168.82,18.003592)"/>
<symbol id="font_1_4d">
<path d="M .07800001 .124000009 C .07800001 .041 .067 .036000004 .006000001 .033 C 0 .027 0 .006 .006000001 0 C .041 .001 .07800001 .002 .118 .002 C .158 .002 .19600001 .001 .229 0 C .235 .006 .235 .027 .229 .033 C .168 .036000004 .157 .041 .157 .124000009 L .157 .585 C .157 .65 .161 .69 .161 .69 C .161 .697 .157 .7 .148 .7 C .122999999 .69 .048000006 .676 .007999999 .673 C .006000001 .665 .007999999 .649 .014 .643 C .072 .639 .07800001 .636 .07800001 .561 L .07800001 .124000009 Z "/>
</symbol>
<use xlink:href="#font_1_4d" transform="matrix(11.95517,0,0,-11.95517,179.31624,48.945787)"/>
<use xlink:href="#font_1_4a" transform="matrix(11.95517,0,0,-11.95517,182.55609,48.945787)"/>
<use xlink:href="#font_1_54" transform="matrix(11.95517,0,0,-11.95517,186.08286,49.041429)"/>
<use xlink:href="#font_1_d" transform="matrix(11.95517,0,0,-11.95517,190.68558,50.511915)"/>
<symbol id="font_2_2a">
<path d="M 0 .319 L .019000002 .319 L .019000002 0 C .009666667 .0006666581 .0033333337 .0029999912 0 .0069999995 L 0 .319 Z "/>
</symbol>
<use xlink:href="#font_2_40" transform="matrix(25.84303,0,0,-25.84303,181.744,22.072928)"/>
<use xlink:href="#font_2_2a" transform="matrix(25.84303,0,0,-25.84303,194.32956,11.735714)"/>
<symbol id="font_1_42">
<path d="M .257 .058000003 C .263 .027000003 .274 0 .324 0 C .36200003 0 .398 .017 .419 .037 C .417 .049000004 .41300003 .058000003 .402 .064 C .395 .058000003 .37800003 .048000006 .365 .048000006 C .336 .048000006 .335 .087000008 .335 .133 L .335 .28 C .335 .42200003 .257 .449 .18400002 .449 C .10200001 .449 .019000002 .395 .019000002 .338 C .019000002 .314 .031 .30200003 .054 .30200003 C .083000008 .30200003 .10100001 .323 .10100001 .336 C .10100001 .343 .10000001 .35 .098000008 .354 C .097 .357 .096 .363 .096 .374 C .096 .405 .13800001 .416 .17600002 .416 C .21000001 .416 .257 .39900003 .257 .286 C .257 .279 .254 .275 .251 .274 L .165 .25300003 C .069000009 .22900002 0 .17600002 0 .108 C 0 .026 .056000007 0 .126 0 C .16100002 0 .19100002 .008 .23500003 .042000005 L .255 .058000003 L .257 .058000003 M .257 .24300002 L .257 .111 C .257 .098000008 .251 .091 .24300002 .085 C .21700002 .064 .18300002 .041 .15500002 .041 C .105000007 .041 .083000008 .081 .083000008 .112 C .083000008 .157 .104 .20300001 .17800002 .22200002 L .257 .24300002 Z "/>
</symbol>
<use xlink:href="#font_1_54" transform="matrix(11.95517,0,0,-11.95517,198.46884,49.041429)"/>
<use xlink:href="#font_1_42" transform="matrix(11.95517,0,0,-11.95517,202.98789,49.041429)"/>
<use xlink:href="#font_2_40" transform="matrix(25.84303,0,0,-25.84303,203.14402,22.072928)"/>
<use xlink:href="#font_1_4f" transform="matrix(11.95517,0,0,-11.95517,208.2601,48.945787)"/>
<use xlink:href="#font_1_44" transform="matrix(11.95517,0,0,-11.95517,214.94304,49.041429)"/>
<use xlink:href="#font_1_55" transform="matrix(11.95517,0,0,-11.95517,219.9164,49.041429)"/>
<use xlink:href="#font_1_4a" transform="matrix(11.95517,0,0,-11.95517,223.68228,48.945787)"/>
<use xlink:href="#font_1_e" transform="matrix(11.95517,0,0,-11.95517,227.1134,46.25587)"/>
<use xlink:href="#font_2_40" transform="matrix(25.84303,0,0,-25.84303,222.87,18.003592)"/>
<symbol id="font_1_939">
<path d="M .448 .124000009 L .448 .335 C .448 .374 .45200003 .43800003 .45200003 .43800003 C .45200003 .44200004 .446 .44400005 .442 .44400005 C .412 .432 .38300003 .43100003 .348 .43100003 L .15100001 .43100003 L .15100001 .48800005 C .15100001 .583 .18500002 .666 .253 .666 C .296 .666 .33 .65500006 .338 .614 C .348 .564 .36900003 .549 .4 .549 C .42200003 .549 .44300003 .569 .44300003 .59 C .44300003 .652 .358 .7 .265 .7 C .21900001 .7 .164 .682 .12300001 .634 C .08100001 .585 .072000008 .524 .072000008 .44600005 L .072000008 .43100003 L .023 .43100003 C .004999999 .43100003 0 .41900004 0 .411 L 0 .39800004 C 0 .39300005 .0010000002 .39200003 .004999999 .39200003 L .072000008 .39200003 L .072000008 .124000009 C .072000008 .041 .061000006 .037 .0069999995 .033 C .0010000002 .027 .0010000002 .006 .0069999995 0 C .041 .001 .07700001 .002 .112 .002 C .14700002 .002 .19200002 .001 .22500001 0 C .23100002 .006 .23100002 .027 .22500001 .033 C .16100002 .037 .15100001 .041 .15100001 .124000009 L .15100001 .39200003 L .33 .39200003 C .361 .39200003 .36900003 .372 .36900003 .321 L .36900003 .124000009 C .36900003 .041 .357 .037 .302 .033 C .296 .027 .296 .006 .302 0 C .337 .001 .373 .002 .409 .002 C .444 .002 .48299999 .001 .52000007 0 C .526 .006 .526 .027 .52000007 .033 C .45900003 .037 .448 .041 .448 .124000009 Z "/>
</symbol>
<use xlink:href="#font_1_939" transform="matrix(11.95517,0,0,-11.95517,231.296,48.945787)"/>
<use xlink:href="#font_1_e" transform="matrix(11.95517,0,0,-11.95517,238.20609,46.25587)"/>
<use xlink:href="#font_2_40" transform="matrix(25.84303,0,0,-25.84303,233.96302,18.003592)"/>
<symbol id="font_1_a9">
<path d="M .349 .103 C .312 .065000008 .28300003 .049000004 .22500003 .049000004 C .18900001 .049000004 .14700002 .07 .11600001 .12100001 C .096 .15400002 .08400001 .20000002 .08400001 .25800003 L .35000003 .256 C .36200003 .256 .36900003 .262 .36900003 .273 C .36900003 .357 .33900003 .447 .20000002 .447 C .113000009 .447 0 .364 0 .21200001 C 0 .15600002 .014000002 .102000009 .047000007 .064 C .08100001 .024 .128 0 .20000002 0 C .27600003 0 .33 .035 .37 .087000008 C .367 .097 .36100004 .102000009 .349 .103 M .087000008 .292 C .106000009 .405 .17600002 .414 .20000002 .414 C .238 .414 .28300003 .393 .28300003 .30900003 C .28300003 .3 .279 .29500003 .268 .29500003 L .087000008 .292 M .23300001 .681 L .157 .56200006 C .149 .549 .14600002 .545 .14600002 .53400006 C .14600002 .527 .15300001 .521 .16000001 .521 C .16700001 .521 .17500001 .52500006 .19000001 .54 L .305 .64900007 L .30200003 .66 C .279 .68200007 .25300003 .683 .24700001 .683 C .24200002 .683 .236 .68200007 .23300001 .681 Z "/>
</symbol>
<use xlink:href="#font_1_44" transform="matrix(11.95517,0,0,-11.95517,242.21135,49.041429)"/>
<use xlink:href="#font_1_a9" transform="matrix(11.95517,0,0,-11.95517,247.32817,49.041429)"/>
<use xlink:href="#font_1_e" transform="matrix(11.95517,0,0,-11.95517,252.70801,46.25587)"/>
<use xlink:href="#font_2_40" transform="matrix(25.84303,0,0,-25.84303,247.413,18.003592)"/>
<use xlink:href="#font_1_55" transform="matrix(11.95517,0,0,-11.95517,256.5699,49.041429)"/>
<use xlink:href="#font_1_56" transform="matrix(11.95517,0,0,-11.95517,260.28794,49.077295)"/>
<use xlink:href="#font_1_53" transform="matrix(11.95517,0,0,-11.95517,266.63615,48.945787)"/>
<use xlink:href="#font_2_40" transform="matrix(25.84303,0,0,-25.84303,261.078,18.003592)"/>
<use xlink:href="#font_1_4f" transform="matrix(11.95517,0,0,-11.95517,275.6101,48.945787)"/>
<use xlink:href="#font_1_50" transform="matrix(11.95517,0,0,-11.95517,282.34089,49.041429)"/>
<use xlink:href="#font_2_40" transform="matrix(25.84303,0,0,-25.84303,282.718,22.072928)"/>
<symbol id="font_1_4e">
<path d="M .15 .36 C .14900002 .39000003 .14700002 .42600004 .142 .43600003 C .14000002 .441 .13800001 .44400005 .13000001 .44400005 C .102000009 .43300004 .076 .42400003 .0069999995 .41500003 C .004999999 .409 .0069999995 .39300005 .009 .38700003 C .063 .38200004 .074 .37700004 .074 .319 L .074 .124000009 C .074 .042000005 .060999998 .037 .005999999 .033 C 0 .027 0 .006 .005999999 0 C .036 .001 .074 .002 .114 .002 C .15400002 .002 .18500002 .001 .21500002 0 C .22100002 .006 .22100002 .027 .21500002 .033 C .16400002 .038000004 .15300001 .042000005 .15300001 .124000009 L .15300001 .28800003 C .15300001 .30900003 .16200002 .321 .17000002 .33 C .21000001 .36900003 .24700003 .38900004 .278 .38900004 C .316 .38900004 .344 .365 .344 .298 L .344 .124000009 C .344 .042000005 .336 .037 .282 .033 C .277 .027 .277 .006 .282 0 C .307 .001 .344 .002 .384 .002 C .42400003 .002 .45700003 .001 .48200003 0 C .48700003 .006 .48700003 .027 .48200003 .033 C .432 .037 .423 .042000005 .423 .124000009 L .423 .28300003 C .423 .29700003 .423 .31100003 .42200003 .323 C .47 .37600003 .51500007 .38900004 .554 .38900004 C .59200009 .38900004 .614 .367 .614 .3 L .614 .124000009 C .614 .042000005 .60400006 .037 .55200007 .033 C .54700008 .027 .54700008 .006 .55200007 0 C .577 .001 .614 .002 .65400007 .002 C .69400009 .002 .72900006 .001 .757 0 C .7620001 .006 .7620001 .027 .757 .033 C .7020001 .037 .6930001 .042000005 .6930001 .124000009 L .6930001 .282 C .6930001 .37100003 .67800006 .441 .59000006 .441 C .53900006 .441 .477 .42200003 .425 .367 C .42200003 .36400003 .416 .35900004 .414 .36800004 C .405 .409 .366 .441 .314 .441 C .256 .441 .20400001 .40700004 .16200002 .36 C .157 .35500003 .15100001 .34800003 .15 .36 Z "/>
</symbol>
<use xlink:href="#font_1_4e" transform="matrix(11.95517,0,0,-11.95517,288.1151,48.945787)"/>
<use xlink:href="#font_1_46" transform="matrix(11.95517,0,0,-11.95517,297.76295,49.041429)"/>
<use xlink:href="#font_1_4f" transform="matrix(11.95517,0,0,-11.95517,302.90367,48.945787)"/>
<symbol id="font_2_14">
<path d="M 0 .049000004 L 0 .22800002 C .0060000007 .22266667 .011333334 .21833332 .016 .215 C .021333335 .21233332 .027 .21033335 .033 .20900002 C .039666669 .20833333 .04766667 .208 .057000005 .208 L .057000005 .535 C .057 .5543334 .059666676 .56400009 .065000008 .56400009 L .066 .56400009 C .072000008 .56400009 .075 .5586667 .075 .54800006 C .075 .54333338 .07433334 .5373333 .07300001 .53000006 L .07300001 0 C .024333336 .007333333 0 .023666667 0 .049000004 Z "/>
</symbol>
<use xlink:href="#font_2_40" transform="matrix(25.84303,0,0,-25.84303,297.847,22.072928)"/>
<use xlink:href="#font_2_14" transform="matrix(25.84303,0,0,-25.84303,308.657,18.33955)"/>
<path transform="matrix(1,0,0,-1,1,61.91797)" stroke-width=".388" stroke-linecap="butt" stroke-miterlimit="10" stroke-linejoin="miter" fill="none" stroke="#000000" d="M 0 0 L 309.543 0 "/>
<path transform="matrix(1,0,0,-1,1,70.05859)" stroke-width=".388" stroke-linecap="butt" stroke-miterlimit="10" stroke-linejoin="miter" fill="none" stroke="#000000" d="M 0 0 L 309.543 0 "/>
<path transform="matrix(1,0,0,-1,1,78.19922)" stroke-width=".388" stroke-linecap="butt" stroke-miterlimit="10" stroke-linejoin="miter" fill="none" stroke="#000000" d="M 0 0 L 309.543 0 "/>
<path transform="matrix(1,0,0,-1,1,86.33984)" stroke-width=".388" stroke-linecap="butt" stroke-miterlimit="10" stroke-linejoin="miter" fill="none" stroke="#000000" d="M 0 0 L 309.543 0 "/>
<use xlink:href="#font_2_d" transform="matrix(25.84303,0,0,-25.84303,1,68.8306)"/>
<use xlink:href="#font_1_55" transform="matrix(11.95517,0,0,-11.95517,7.3018777,103.83537)"/>
<use xlink:href="#font_1_56" transform="matrix(11.95517,0,0,-11.95517,11.019934,103.87124)"/>
<use xlink:href="#font_1_e" transform="matrix(11.95517,0,0,-11.95517,17.607235,101.04982)"/>
<use xlink:href="#font_2_40" transform="matrix(25.84303,0,0,-25.84303,11.808998,72.798519)"/>
<use xlink:href="#font_1_56" transform="matrix(11.95517,0,0,-11.95517,23.055106,103.87124)"/>
<use xlink:href="#font_1_4e" transform="matrix(11.95517,0,0,-11.95517,29.403304,103.73973)"/>
<use xlink:href="#font_1_d" transform="matrix(11.95517,0,0,-11.95517,39.122854,105.305858)"/>
<symbol id="font_2_34">
<path d="M .019000002 .68200007 L .019000002 .0029999912 C .009000001 .002333333 .0026666669 .001333336 0 0 L 0 .679 C .0033333337 .68100008 .009666667 .682 .019000002 .68200007 Z "/>
</symbol>
<use xlink:href="#font_2_40" transform="matrix(25.84303,0,0,-25.84303,23.846,72.798519)"/>
<use xlink:href="#font_2_34" transform="matrix(25.84303,0,0,-25.84303,37.9,83.58801)"/>
<use xlink:href="#font_1_42" transform="matrix(11.95517,0,0,-11.95517,47.998388,103.83537)"/>
<use xlink:href="#font_2_40" transform="matrix(25.84303,0,0,-25.84303,48.155,76.86883)"/>
<symbol id="font_1_45">
<path d="M .29500003 .063 C .3 .067 .30900003 .069000009 .31 .062000004 C .31300003 .038000004 .321 .0029999996 .321 .0029999996 C .32900004 0 .33400003 .0010000002 .34 .0029999996 C .36200003 .021000002 .397 .036000004 .458 .043 C .46400003 .049000004 .46400003 .064 .458 .07000001 C .39400003 .075 .38500003 .094 .38500003 .143 L .38500003 .596 C .38500003 .661 .38900004 .70100006 .38900004 .70100006 C .38900004 .70800009 .38500003 .711 .37600003 .711 C .351 .70100006 .27600003 .68700006 .236 .684 C .234 .67600008 .236 .66 .24200002 .65400007 C .245 .65400007 .248 .65400007 .25100003 .65400007 C .29500003 .651 .30600003 .651 .30600003 .572 L .30600003 .44400005 C .30600003 .43700005 .30400003 .43500004 .29700003 .43500004 C .293 .43500004 .252 .45200003 .21900001 .45200003 C .153 .45200003 .109 .43000005 .069000009 .39200003 C .026000005 .34900005 0 .29000003 0 .216 C 0 .09300001 .062000004 .0029999996 .17 .0029999996 C .209 .0029999996 .24600002 .023000002 .29500003 .063 M .30600003 .13700001 C .30600003 .118 .30400003 .11 .29000003 .098000008 C .25300003 .066 .22100002 .05 .19600001 .05 C .142 .05 .085999999 .109 .085999999 .23400001 C .085999999 .30600003 .10000001 .34600003 .11500001 .367 C .146 .41400004 .18800001 .41700004 .208 .41700004 C .24400002 .41700004 .26900003 .40400005 .289 .38100005 C .303 .36500005 .30600003 .35800005 .30600003 .32700003 L .30600003 .13700001 Z "/>
</symbol>
<symbol id="font_1_57">
<path d="M .32000003 .41000004 C .374 .40600003 .38000003 .39400003 .35900004 .34300003 L .27800004 .147 C .26200003 .108 .25700004 .108 .24100001 .15 L .16900002 .34300003 C .15100001 .391 .14700002 .40300004 .20000002 .41000004 C .20600002 .416 .20600002 .437 .20000002 .44300003 C .16700001 .442 .13200002 .441 .099 .441 C .066 .441 .036000004 .442 .0060000007 .44300003 C 0 .437 0 .416 .0060000007 .41000004 C .059000005 .404 .066 .388 .086 .337 L .21400002 .021000002 C .22000002 .006 .22600001 0 .23900002 0 C .24900002 0 .256 .006 .263 .023000002 L .39600004 .336 C .41500003 .38000003 .42600004 .405 .48200003 .41000004 C .48800005 .416 .48800005 .437 .48200003 .44300003 C .462 .442 .43800003 .441 .41200004 .441 C .379 .441 .34500004 .442 .32000003 .44300003 C .314 .437 .314 .416 .32000003 .41000004 Z "/>
</symbol>
<use xlink:href="#font_1_45" transform="matrix(11.95517,0,0,-11.95517,53.49725,103.87124)"/>
<use xlink:href="#font_1_57" transform="matrix(11.95517,0,0,-11.95517,59.1401,103.85928)"/>
<use xlink:href="#font_1_a9" transform="matrix(11.95517,0,0,-11.95517,65.46439,103.83537)"/>
<use xlink:href="#font_1_e" transform="matrix(11.95517,0,0,-11.95517,70.84422,101.04982)"/>
<use xlink:href="#font_2_40" transform="matrix(25.84303,0,0,-25.84303,65.548999,72.798519)"/>
<use xlink:href="#font_1_4f" transform="matrix(11.95517,0,0,-11.95517,75.58911,103.73973)"/>
<use xlink:href="#font_1_4a" transform="matrix(11.95517,0,0,-11.95517,82.11664,103.73973)"/>
<use xlink:href="#font_1_e" transform="matrix(11.95517,0,0,-11.95517,85.547779,101.04982)"/>
<use xlink:href="#font_2_40" transform="matrix(25.84303,0,0,-25.84303,81.30499,72.798519)"/>
<use xlink:href="#font_1_42" transform="matrix(11.95517,0,0,-11.95517,93.18439,103.83537)"/>
<use xlink:href="#font_1_55" transform="matrix(11.95517,0,0,-11.95517,98.516399,103.83537)"/>
<use xlink:href="#font_2_40" transform="matrix(25.84303,0,0,-25.84303,93.341,72.798519)"/>
<use xlink:href="#font_1_53" transform="matrix(11.95517,0,0,-11.95517,107.99611,103.73973)"/>
<use xlink:href="#font_1_46" transform="matrix(11.95517,0,0,-11.95517,112.55103,103.83537)"/>
<use xlink:href="#font_2_40" transform="matrix(25.84303,0,0,-25.84303,112.636,72.798519)"/>
<symbol id="font_1_48">
<path d="M .41200004 .625 C .43100003 .625 .44900004 .643 .44900004 .663 C .44900004 .684 .43 .70000007 .40300004 .70000007 C .377 .70000007 .32900004 .683 .303 .64900007 C .291 .65700009 .25800003 .67700007 .199 .67700007 C .11 .67700007 .028 .617 .028 .525 C .028 .47100003 .052000006 .44 .08 .41300003 C .052000006 .389 .036000004 .34600003 .036000004 .312 C .036000004 .27600003 .056000007 .24800001 .082 .235 C .028 .20300001 0 .157 0 .114 C 0 .026999996 .082 0 .15900001 0 C .294 0 .44000004 .065 .44000004 .17300001 C .44000004 .20500002 .425 .23 .39600004 .254 C .35700003 .286 .287 .287 .25 .287 C .232 .287 .207 .285 .183 .282 C .168 .28100003 .158 .28 .153 .28 C .124 .28 .089 .294 .089 .337 C .089 .357 .095 .37800003 .10700001 .395 C .131 .381 .15900001 .374 .198 .374 C .286 .374 .367 .42900003 .367 .527 C .367 .574 .35300002 .601 .324 .63100007 C .331 .64100006 .351 .65500006 .36400003 .65500006 C .37100003 .65500006 .37800003 .65200009 .384 .643 C .388 .635 .40100003 .625 .41200004 .625 M .099999997 .228 C .111 .22500001 .127 .223 .14 .223 C .171 .223 .199 .22600001 .213 .22600001 C .263 .22600001 .305 .22500001 .33400003 .209 C .37300004 .187 .38500003 .17300001 .38500003 .147 C .38500003 .075 .279 .037 .18900001 .037 C .153 .037 .069000009 .066 .069000009 .134 C .069000009 .16800002 .07100001 .193 .099999997 .228 M .287 .517 C .287 .42400003 .24000001 .40500004 .20300001 .40500004 C .119 .40500004 .11 .476 .11 .54 C .11 .61 .135 .646 .19000001 .646 C .25300003 .646 .287 .6 .287 .517 Z "/>
</symbol>
<use xlink:href="#font_1_48" transform="matrix(11.95517,0,0,-11.95517,117.83557,106.56115)"/>
<use xlink:href="#font_1_4f" transform="matrix(11.95517,0,0,-11.95517,123.66969,103.73973)"/>
<use xlink:href="#font_1_56" transform="matrix(11.95517,0,0,-11.95517,130.1494,103.87124)"/>
<use xlink:href="#font_1_4e" transform="matrix(11.95517,0,0,-11.95517,136.49759,103.73973)"/>
<use xlink:href="#font_2_40" transform="matrix(25.84303,0,0,-25.84303,130.939,72.798519)"/>
<use xlink:href="#font_1_55" transform="matrix(11.95517,0,0,-11.95517,151.76387,103.83537)"/>
<use xlink:href="#font_1_56" transform="matrix(11.95517,0,0,-11.95517,155.48194,103.87124)"/>
<use xlink:href="#font_1_e" transform="matrix(11.95517,0,0,-11.95517,162.06923,101.04982)"/>
<use xlink:href="#font_2_40" transform="matrix(25.84303,0,0,-25.84303,156.272,72.798519)"/>
<use xlink:href="#font_1_56" transform="matrix(11.95517,0,0,-11.95517,167.51811,103.87124)"/>
<use xlink:href="#font_1_4e" transform="matrix(11.95517,0,0,-11.95517,173.8663,103.73973)"/>
<use xlink:href="#font_1_d" transform="matrix(11.95517,0,0,-11.95517,183.58585,105.305858)"/>
<use xlink:href="#font_2_40" transform="matrix(25.84303,0,0,-25.84303,168.308,76.86883)"/>
<use xlink:href="#font_2_2a" transform="matrix(25.84303,0,0,-25.84303,183.52956,66.53162)"/>
<use xlink:href="#font_1_939" transform="matrix(11.95517,0,0,-11.95517,192.29302,103.73973)"/>
<use xlink:href="#font_1_e" transform="matrix(11.95517,0,0,-11.95517,199.2031,101.04982)"/>
<use xlink:href="#font_2_40" transform="matrix(25.84303,0,0,-25.84303,194.95999,76.86883)"/>
<use xlink:href="#font_1_42" transform="matrix(11.95517,0,0,-11.95517,206.83939,103.83537)"/>
<use xlink:href="#font_1_55" transform="matrix(11.95517,0,0,-11.95517,212.17137,103.83537)"/>
<use xlink:href="#font_2_40" transform="matrix(25.84303,0,0,-25.84303,206.996,72.798519)"/>
<use xlink:href="#font_1_57" transform="matrix(11.95517,0,0,-11.95517,221.47176,103.85928)"/>
<use xlink:href="#font_1_50" transform="matrix(11.95517,0,0,-11.95517,227.74822,103.83537)"/>
<use xlink:href="#font_1_e" transform="matrix(11.95517,0,0,-11.95517,233.76166,101.04982)"/>
<use xlink:href="#font_2_40" transform="matrix(25.84303,0,0,-25.84303,228.126,72.798519)"/>
<symbol id="font_1_ba">
<path d="M .19700001 .0029999996 C .23600002 .0029999996 .283 .023000002 .33200003 .063 C .337 .067 .34600003 .069000009 .347 .062000004 C .35 .037 .358 .0029999996 .358 .0029999996 C .366 0 .37100003 .0010000002 .377 .0029999996 C .39900003 .021000002 .43400003 .036000004 .49500004 .043 C .50100007 .049000004 .50100007 .064 .49500004 .07000001 C .43100003 .075 .42200003 .094 .42200003 .143 L .42200003 .33500005 C .42200003 .36500005 .426 .43800003 .426 .43800003 C .426 .44100005 .423 .44400005 .418 .44400005 C .41300003 .44300003 .398 .44200004 .38300003 .44200004 C .351 .44200004 .315 .44300003 .28100003 .44400005 C .275 .43800003 .275 .41700004 .28100003 .41100005 C .33 .40800003 .343 .39600004 .343 .33 L .343 .13700001 C .343 .118 .34100003 .11 .327 .098000008 C .29 .066 .252 .05 .22700002 .05 C .19700001 .05 .14700002 .064 .14700002 .153 L .14700002 .33500005 C .14700002 .36500005 .15100001 .43800003 .15100001 .43800003 C .15100001 .44100005 .14800002 .44400005 .143 .44400005 C .13800001 .44300003 .123 .44200004 .108 .44200004 C .076 .44200004 .04 .44300003 .005999999 .44400005 C 0 .43800003 0 .41700004 .005999999 .41100005 C .053999999 .40700004 .068 .39600004 .068 .33100004 L .068 .139 C .068 .07000001 .098000008 .0029999996 .19700001 .0029999996 M .277 .684 L .20100002 .56500008 C .19300002 .55200007 .19000001 .54800006 .19000001 .53700008 C .19000001 .53000006 .19700001 .52400007 .20400001 .52400007 C .21100001 .52400007 .21900001 .52800008 .23400001 .54300007 L .349 .65200009 L .34600003 .66300007 C .323 .68500009 .297 .68600007 .291 .68600007 C .286 .68600007 .28 .68500009 .277 .684 Z "/>
</symbol>
<use xlink:href="#font_1_4d" transform="matrix(11.95517,0,0,-11.95517,238.47124,103.73973)"/>
<use xlink:href="#font_1_ba" transform="matrix(11.95517,0,0,-11.95517,241.66327,103.87124)"/>
<use xlink:href="#font_2_40" transform="matrix(25.84303,0,0,-25.84303,242.453,72.798519)"/>
<use xlink:href="#font_1_4f" transform="matrix(11.95517,0,0,-11.95517,248.01111,103.73973)"/>
<use xlink:href="#font_1_55" transform="matrix(11.95517,0,0,-11.95517,254.55059,103.83537)"/>
<use xlink:href="#font_1_42" transform="matrix(11.95517,0,0,-11.95517,258.45994,103.83537)"/>
<use xlink:href="#font_1_54" transform="matrix(11.95517,0,0,-11.95517,264.0669,103.83537)"/>
<use xlink:href="#font_2_40" transform="matrix(25.84303,0,0,-25.84303,258.616,72.798519)"/>
<use xlink:href="#font_1_55" transform="matrix(11.95517,0,0,-11.95517,274.21589,103.83537)"/>
<use xlink:href="#font_1_56" transform="matrix(11.95517,0,0,-11.95517,277.93394,103.87124)"/>
<use xlink:href="#font_1_e" transform="matrix(11.95517,0,0,-11.95517,284.52125,101.04982)"/>
<use xlink:href="#font_2_40" transform="matrix(25.84303,0,0,-25.84303,278.724,72.798519)"/>
<use xlink:href="#font_1_42" transform="matrix(11.95517,0,0,-11.95517,290.6044,103.83537)"/>
<use xlink:href="#font_1_d" transform="matrix(11.95517,0,0,-11.95517,296.15159,105.305858)"/>
<use xlink:href="#font_2_40" transform="matrix(25.84303,0,0,-25.84303,290.76,72.798519)"/>
<use xlink:href="#font_2_2a" transform="matrix(25.84303,0,0,-25.84303,301.646,66.53162)"/>
<use xlink:href="#font_2_14" transform="matrix(25.84303,0,0,-25.84303,308.657,73.134479)"/>
<path transform="matrix(1,0,0,-1,1,116.71289)" stroke-width=".388" stroke-linecap="butt" stroke-miterlimit="10" stroke-linejoin="miter" fill="none" stroke="#000000" d="M 0 0 L 309.543 0 "/>
<path transform="matrix(1,0,0,-1,1,124.85254)" stroke-width=".388" stroke-linecap="butt" stroke-miterlimit="10" stroke-linejoin="miter" fill="none" stroke="#000000" d="M 0 0 L 309.543 0 "/>
<path transform="matrix(1,0,0,-1,1,132.99414)" stroke-width=".388" stroke-linecap="butt" stroke-miterlimit="10" stroke-linejoin="miter" fill="none" stroke="#000000" d="M 0 0 L 309.543 0 "/>
<path transform="matrix(1,0,0,-1,1,141.13379)" stroke-width=".388" stroke-linecap="butt" stroke-miterlimit="10" stroke-linejoin="miter" fill="none" stroke="#000000" d="M 0 0 L 309.543 0 "/>
<use xlink:href="#font_2_d" transform="matrix(25.84303,0,0,-25.84303,1,123.62552)"/>
<use xlink:href="#font_1_54" transform="matrix(11.95517,0,0,-11.95517,8.245845,158.6303)"/>
<use xlink:href="#font_1_4a" transform="matrix(11.95517,0,0,-11.95517,12.621435,158.53466)"/>
<use xlink:href="#font_1_e" transform="matrix(11.95517,0,0,-11.95517,16.05257,155.84474)"/>
<use xlink:href="#font_2_40" transform="matrix(25.84303,0,0,-25.84303,11.808998,127.59246)"/>
<use xlink:href="#font_1_44" transform="matrix(11.95517,0,0,-11.95517,20.699345,158.6303)"/>
<use xlink:href="#font_1_56" transform="matrix(11.95517,0,0,-11.95517,25.61292,158.66616)"/>
<use xlink:href="#font_1_55" transform="matrix(11.95517,0,0,-11.95517,32.020895,158.6303)"/>
<use xlink:href="#font_2_40" transform="matrix(25.84303,0,0,-25.84303,26.403,127.59246)"/>
<use xlink:href="#font_1_4a" transform="matrix(11.95517,0,0,-11.95517,41.24792,158.53466)"/>
<use xlink:href="#font_1_4f" transform="matrix(11.95517,0,0,-11.95517,44.439958,158.53466)"/>
<use xlink:href="#font_2_40" transform="matrix(25.84303,0,0,-25.84303,40.435998,127.59246)"/>
<use xlink:href="#font_1_44" transform="matrix(11.95517,0,0,-11.95517,56.58334,158.6303)"/>
<use xlink:href="#font_1_a6" transform="matrix(11.95517,0,0,-11.95517,61.724065,158.6303)"/>
<use xlink:href="#font_1_e" transform="matrix(11.95517,0,0,-11.95517,69.94922,155.84474)"/>
<use xlink:href="#font_2_40" transform="matrix(25.84303,0,0,-25.84303,63.22,127.59246)"/>
<use xlink:href="#font_1_4d" transform="matrix(11.95517,0,0,-11.95517,74.35725,158.53466)"/>
<use xlink:href="#font_1_50" transform="matrix(11.95517,0,0,-11.95517,77.80033,158.6303)"/>
<use xlink:href="#font_1_d" transform="matrix(11.95517,0,0,-11.95517,83.84964,160.10079)"/>
<use xlink:href="#font_2_40" transform="matrix(25.84303,0,0,-25.84303,78.17799,127.59246)"/>
<use xlink:href="#font_1_46" transform="matrix(11.95517,0,0,-11.95517,91.86935,158.6303)"/>
<use xlink:href="#font_1_55" transform="matrix(11.95517,0,0,-11.95517,97.06985,158.6303)"/>
<use xlink:href="#font_2_40" transform="matrix(25.84303,0,0,-25.84303,91.953998,131.66277)"/>
<use xlink:href="#font_1_4a" transform="matrix(11.95517,0,0,-11.95517,106.29692,158.53466)"/>
<use xlink:href="#font_1_4f" transform="matrix(11.95517,0,0,-11.95517,109.48895,158.53466)"/>
<use xlink:href="#font_2_40" transform="matrix(25.84303,0,0,-25.84303,105.485,131.66277)"/>
<use xlink:href="#font_1_55" transform="matrix(11.95517,0,0,-11.95517,121.488887,158.6303)"/>
<use xlink:href="#font_1_46" transform="matrix(11.95517,0,0,-11.95517,125.41018,158.6303)"/>
<use xlink:href="#font_2_40" transform="matrix(25.84303,0,0,-25.84303,125.494998,127.59246)"/>
<symbol id="font_1_f">
<path d="M 0 .053000004 C 0 .024 .023999997 0 .053000004 0 C .08200001 0 .106 .024 .106 .053000004 C .106 .082 .08200001 .106 .053000004 .106 C .023999997 .106 0 .082 0 .053000004 Z "/>
</symbol>
<use xlink:href="#font_1_53" transform="matrix(11.95517,0,0,-11.95517,130.5511,158.53466)"/>
<use xlink:href="#font_1_53" transform="matrix(11.95517,0,0,-11.95517,134.99843,158.53466)"/>
<use xlink:href="#font_1_42" transform="matrix(11.95517,0,0,-11.95517,139.63704,158.6303)"/>
<use xlink:href="#font_1_f" transform="matrix(11.95517,0,0,-11.95517,145.35161,158.6303)"/>
<symbol id="font_2_26">
<path d="M 0 .96000006 L .019000002 .96000006 L .019000002 0 L 0 0 L 0 .96000006 Z "/>
</symbol>
<use xlink:href="#font_2_40" transform="matrix(25.84303,0,0,-25.84303,139.793,127.59246)"/>
<use xlink:href="#font_2_26" transform="matrix(25.84303,0,0,-25.84303,151.987,141.30222)"/>
<use xlink:href="#font_1_31" transform="matrix(11.95517,0,0,-11.95517,153.4595,158.53466)"/>
<use xlink:href="#font_1_42" transform="matrix(11.95517,0,0,-11.95517,160.22614,158.6303)"/>
<use xlink:href="#font_2_40" transform="matrix(25.84303,0,0,-25.84303,160.382,131.66277)"/>
<use xlink:href="#font_1_4f" transform="matrix(11.95517,0,0,-11.95517,165.49811,158.53466)"/>
<use xlink:href="#font_1_46" transform="matrix(11.95517,0,0,-11.95517,172.18105,158.6303)"/>
<use xlink:href="#font_1_4e" transform="matrix(11.95517,0,0,-11.95517,177.32178,158.53466)"/>
<use xlink:href="#font_2_40" transform="matrix(25.84303,0,0,-25.84303,172.266,127.59246)"/>
<use xlink:href="#font_1_4f" transform="matrix(11.95517,0,0,-11.95517,192.22711,158.53466)"/>
<use xlink:href="#font_1_50" transform="matrix(11.95517,0,0,-11.95517,198.95787,158.6303)"/>
<use xlink:href="#font_2_40" transform="matrix(25.84303,0,0,-25.84303,199.336,127.59246)"/>
<use xlink:href="#font_1_54" transform="matrix(11.95517,0,0,-11.95517,205.06687,158.6303)"/>
<use xlink:href="#font_1_55" transform="matrix(11.95517,0,0,-11.95517,209.45439,158.6303)"/>
<use xlink:href="#font_1_53" transform="matrix(11.95517,0,0,-11.95517,213.17246,158.53466)"/>
<use xlink:href="#font_1_56" transform="matrix(11.95517,0,0,-11.95517,217.61978,158.66616)"/>
<use xlink:href="#font_1_4e" transform="matrix(11.95517,0,0,-11.95517,223.96799,158.53466)"/>
<use xlink:href="#font_2_40" transform="matrix(25.84303,0,0,-25.84303,218.41,127.59246)"/>
<use xlink:href="#font_1_44" transform="matrix(11.95517,0,0,-11.95517,239.07735,158.6303)"/>
<use xlink:href="#font_1_50" transform="matrix(11.95517,0,0,-11.95517,244.24199,158.6303)"/>
<use xlink:href="#font_1_e" transform="matrix(11.95517,0,0,-11.95517,250.25543,155.84474)"/>
<use xlink:href="#font_2_40" transform="matrix(25.84303,0,0,-25.84303,244.61899,127.59246)"/>
<use xlink:href="#font_1_55" transform="matrix(11.95517,0,0,-11.95517,254.75887,158.6303)"/>
<use xlink:href="#font_1_4a" transform="matrix(11.95517,0,0,-11.95517,258.52476,158.53466)"/>
<use xlink:href="#font_1_e" transform="matrix(11.95517,0,0,-11.95517,261.95588,155.84474)"/>
<use xlink:href="#font_2_40" transform="matrix(25.84303,0,0,-25.84303,257.713,127.59246)"/>
<use xlink:href="#font_1_45" transform="matrix(11.95517,0,0,-11.95517,266.62626,158.66616)"/>
<use xlink:href="#font_1_4a" transform="matrix(11.95517,0,0,-11.95517,272.49626,158.53466)"/>
<use xlink:href="#font_1_e" transform="matrix(11.95517,0,0,-11.95517,275.92738,155.84474)"/>
<use xlink:href="#font_2_40" transform="matrix(25.84303,0,0,-25.84303,271.685,127.59246)"/>
<symbol id="font_1_a1">
<path d="M .257 .058000003 C .263 .027000003 .274 0 .324 0 C .36200003 0 .398 .017 .419 .037 C .417 .049000004 .41300003 .058000003 .402 .064 C .395 .058000003 .37800003 .048000006 .365 .048000006 C .336 .048000006 .335 .087000008 .335 .133 L .335 .28 C .335 .42200003 .257 .449 .18400002 .449 C .10200001 .449 .019000002 .395 .019000002 .338 C .019000002 .314 .031 .30200003 .054 .30200003 C .083000008 .30200003 .10100001 .323 .10100001 .336 C .10100001 .343 .10000001 .35 .098000008 .354 C .097 .357 .096 .363 .096 .374 C .096 .405 .13800001 .416 .17600002 .416 C .21000001 .416 .257 .39900003 .257 .286 C .257 .279 .254 .275 .251 .274 L .165 .25300003 C .069000009 .22900002 0 .17600002 0 .108 C 0 .026 .056000007 0 .126 0 C .16100002 0 .19100002 .008 .23500003 .042000005 L .255 .058000003 L .257 .058000003 M .257 .24300002 L .257 .111 C .257 .098000008 .251 .091 .24300002 .085 C .21700002 .064 .18300002 .041 .15500002 .041 C .105000007 .041 .083000008 .081 .083000008 .112 C .083000008 .157 .104 .20300001 .17800002 .22200002 L .257 .24300002 M .20800002 .681 L .13200002 .56200006 C .12400001 .549 .12100001 .545 .12100001 .53400006 C .12100001 .527 .128 .521 .135 .521 C .142 .521 .15 .52500006 .165 .54 L .28 .64900007 L .277 .66 C .254 .68200007 .228 .683 .22200002 .683 C .21700002 .683 .21100001 .68200007 .20800002 .681 Z "/>
</symbol>
<use xlink:href="#font_1_a1" transform="matrix(11.95517,0,0,-11.95517,283.2634,158.6303)"/>
<use xlink:href="#font_2_40" transform="matrix(25.84303,0,0,-25.84303,283.42,127.59246)"/>
<use xlink:href="#font_1_4f" transform="matrix(11.95517,0,0,-11.95517,288.5361,158.53466)"/>
<use xlink:href="#font_1_56" transform="matrix(11.95517,0,0,-11.95517,295.0158,158.66616)"/>
<use xlink:href="#font_1_4e" transform="matrix(11.95517,0,0,-11.95517,301.364,158.53466)"/>
<use xlink:href="#font_2_40" transform="matrix(25.84303,0,0,-25.84303,295.806,127.59246)"/>
<use xlink:href="#font_2_14" transform="matrix(25.84303,0,0,-25.84303,308.65,127.92842)"/>
<path transform="matrix(1,0,0,-1,1,171.50684)" stroke-width=".388" stroke-linecap="butt" stroke-miterlimit="10" stroke-linejoin="miter" fill="none" stroke="#000000" d="M 0 0 L 309.543 0 "/>
<path transform="matrix(1,0,0,-1,1,179.64844)" stroke-width=".388" stroke-linecap="butt" stroke-miterlimit="10" stroke-linejoin="miter" fill="none" stroke="#000000" d="M 0 0 L 309.543 0 "/>
<path transform="matrix(1,0,0,-1,1,187.78809)" stroke-width=".388" stroke-linecap="butt" stroke-miterlimit="10" stroke-linejoin="miter" fill="none" stroke="#000000" d="M 0 0 L 309.543 0 "/>
<path transform="matrix(1,0,0,-1,1,195.92871)" stroke-width=".388" stroke-linecap="butt" stroke-miterlimit="10" stroke-linejoin="miter" fill="none" stroke="#000000" d="M 0 0 L 309.543 0 "/>
<use xlink:href="#font_2_d" transform="matrix(25.84303,0,0,-25.84303,1,178.41947)"/>
<use xlink:href="#font_1_45" transform="matrix(11.95517,0,0,-11.95517,5.6392486,213.4601)"/>
<use xlink:href="#font_1_42" transform="matrix(11.95517,0,0,-11.95517,11.652699,213.42424)"/>
<use xlink:href="#font_2_40" transform="matrix(25.84303,0,0,-25.84303,11.808998,182.38738)"/>
<use xlink:href="#font_1_4f" transform="matrix(11.95517,0,0,-11.95517,20.589102,213.3286)"/>
<use xlink:href="#font_1_50" transform="matrix(11.95517,0,0,-11.95517,27.319867,213.42424)"/>
<use xlink:href="#font_1_e" transform="matrix(11.95517,0,0,-11.95517,33.333318,210.63869)"/>
<use xlink:href="#font_2_40" transform="matrix(25.84303,0,0,-25.84303,27.697999,182.38738)"/>
<symbol id="font_1_43">
<path d="M .16100002 .40600003 C .15500002 .4 .15100001 .402 .15100001 .411 L .15100001 .595 C .15100001 .66 .15500002 .70000007 .15500002 .70000007 C .15500002 .7070001 .15100001 .71000006 .142 .71000006 C .117000009 .70000007 .042 .68600007 .0020000004 .683 C 0 .6750001 .0020000004 .65900006 .008 .65300008 C .011000001 .65300008 .014000001 .65300008 .017 .65300008 C .061 .65000006 .072000008 .65000006 .072000008 .57100006 L .072000008 .083000008 C .072000008 .044 .07100001 .026 .068 .012 C .07300001 .0039999999 .07800001 0 .09 0 C .09600001 .006 .106000009 .015000001 .11400001 .024 C .12400001 .036 .13000001 .036 .141 .027 C .164 .007999999 .194 .0019999995 .22900002 .0019999995 C .331 .0019999995 .45000003 .095000009 .45000003 .254 C .45000003 .37600003 .36 .451 .273 .451 C .23000002 .451 .19200002 .43400003 .16100002 .40600003 M .16800002 .375 C .194 .398 .224 .407 .253 .407 C .314 .407 .364 .333 .364 .236 C .364 .12200001 .318 .036 .22300002 .036 C .19200002 .036 .171 .058000007 .15100001 .083000008 L .15100001 .333 C .15100001 .354 .15500002 .36400003 .16800002 .375 Z "/>
</symbol>
<use xlink:href="#font_1_43" transform="matrix(11.95517,0,0,-11.95517,36.967737,213.44815)"/>
<use xlink:href="#font_1_4a" transform="matrix(11.95517,0,0,-11.95517,43.076826,213.3286)"/>
<use xlink:href="#font_1_54" transform="matrix(11.95517,0,0,-11.95517,46.603605,213.42424)"/>
<use xlink:href="#font_2_40" transform="matrix(25.84303,0,0,-25.84303,42.265,182.38738)"/>
<symbol id="font_1_49">
<path d="M .15500002 .28800003 C .15500002 .30900003 .16400002 .321 .17200002 .33 C .21000003 .367 .261 .38900004 .3 .38900004 C .32000003 .38900004 .34100003 .37600003 .35300002 .35300002 C .36300005 .33300004 .365 .30600003 .365 .27600003 L .365 .124000009 C .365 .042000005 .35500003 .038000004 .30300004 .033 C .298 .027 .298 .006 .30300004 0 C .33100004 .001 .365 .002 .40500004 .002 C .44500003 .002 .47800002 .001 .511 0 C .516 .006 .516 .027 .511 .033 C .455 .038000004 .44400005 .042000005 .44400005 .124000009 L .44400005 .27300004 C .44400005 .328 .44000004 .37700004 .41700004 .40700004 C .40000005 .42900003 .36900003 .441 .33400003 .441 C .28500004 .441 .22500003 .42800004 .16400002 .36 C .16400002 .35900004 .16300002 .35900004 .16200002 .358 C .15900001 .35400004 .15400002 .34800003 .15400002 .36 L .15500002 .585 C .15500002 .65 .15900001 .69 .15900001 .69 C .15900001 .697 .15500002 .7 .14600002 .7 C .121 .69 .046000005 .676 .006000001 .673 C .0040000008 .665 .006000001 .649 .012 .643 C .015000001 .643 .018000002 .643 .021 .643 C .065000008 .64 .076000008 .64 .076000008 .561 L .076000008 .124000009 C .076000008 .041 .064 .037 .006000001 .033 C 0 .027 0 .006 .006000001 0 C .039000006 .001 .076000008 .002 .116000007 .002 C .15400002 .002 .18700002 .001 .21500002 0 C .22100002 .006 .22100002 .027 .21500002 .033 C .16400002 .037 .15500002 .041 .15500002 .124000009 L .15500002 .28800003 Z "/>
</symbol>
<symbol id="font_1_b3">
<path d="M 0 .21500002 C 0 .113000009 .068 0 .21000001 0 C .27400003 0 .323 .023000002 .35700003 .056000007 C .402 .1 .42200003 .16300002 .42200003 .22400002 C .42200003 .328 .365 .449 .21200001 .449 C .146 .449 .092 .42200003 .055 .379 C .019000002 .336 0 .278 0 .21500002 M .197 .414 C .283 .414 .336 .336 .336 .19200002 C .336 .066 .271 .035 .224 .035 C .12000001 .035 .086 .16100002 .086 .23800002 C .086 .32500003 .107 .414 .197 .414 M .229 .681 L .153 .56200006 C .14500001 .549 .14200002 .545 .14200002 .53400006 C .14200002 .527 .14900002 .521 .15600002 .521 C .16300002 .521 .171 .52500006 .18600002 .54 L .301 .64900007 L .298 .66 C .275 .68200007 .24900002 .683 .243 .683 C .238 .683 .232 .68200007 .229 .681 Z "/>
</symbol>
<use xlink:href="#font_1_49" transform="matrix(11.95517,0,0,-11.95517,54.499467,213.3286)"/>
<use xlink:href="#font_1_b3" transform="matrix(11.95517,0,0,-11.95517,61.27805,213.42424)"/>
<use xlink:href="#font_1_e" transform="matrix(11.95517,0,0,-11.95517,67.291507,210.63869)"/>
<use xlink:href="#font_2_40" transform="matrix(25.84303,0,0,-25.84303,61.656007,182.38738)"/>
<use xlink:href="#font_1_45" transform="matrix(11.95517,0,0,-11.95517,71.32026,213.4601)"/>
<use xlink:href="#font_1_4a" transform="matrix(11.95517,0,0,-11.95517,77.19025,213.3286)"/>
<use xlink:href="#font_1_e" transform="matrix(11.95517,0,0,-11.95517,80.62138,210.63869)"/>
<use xlink:href="#font_2_40" transform="matrix(25.84303,0,0,-25.84303,76.379,186.45769)"/>
<symbol id="font_1_1c">
<path d="M .061 .22800002 C .030000005 .22800002 .007999998 .207 .007999998 .179 C .007999998 .148 .033999999 .138 .052000006 .135 C .070999998 .133 .088 .127 .088 .104 C .088 .083000008 .052000006 .037 0 .023999997 C 0 .013999999 .0020000004 .0069999995 .009 0 C .069000009 .0109999929 .127 .059 .127 .12900001 C .127 .18900001 .100999999 .22800002 .061 .22800002 M .007999998 .48800005 C .007999998 .459 .032 .435 .061 .435 C .09 .435 .11400001 .459 .11400001 .48800005 C .11400001 .517 .09 .541 .061 .541 C .032 .541 .007999998 .517 .007999998 .48800005 Z "/>
</symbol>
<use xlink:href="#font_1_46" transform="matrix(11.95517,0,0,-11.95517,87.38735,213.42424)"/>
<use xlink:href="#font_1_1c" transform="matrix(11.95517,0,0,-11.95517,93.03019,214.89473)"/>
<use xlink:href="#font_2_40" transform="matrix(25.84303,0,0,-25.84303,87.472,186.45769)"/>
<use xlink:href="#font_2_2a" transform="matrix(25.84303,0,0,-25.84303,96.85303,176.12049)"/>
<use xlink:href="#font_1_46" transform="matrix(11.95517,0,0,-11.95517,102.35235,213.42424)"/>
<use xlink:href="#font_1_55" transform="matrix(11.95517,0,0,-11.95517,107.55285,213.42424)"/>
<use xlink:href="#font_2_40" transform="matrix(25.84303,0,0,-25.84303,102.437,186.45769)"/>
<use xlink:href="#font_1_45" transform="matrix(11.95517,0,0,-11.95517,115.16126,213.4601)"/>
<use xlink:href="#font_1_4a" transform="matrix(11.95517,0,0,-11.95517,121.03125,213.3286)"/>
<use xlink:href="#font_2_40" transform="matrix(25.84303,0,0,-25.84303,120.22,182.38738)"/>
<symbol id="font_1_ad">
<path d="M .157 .124000009 L .157 .323 C .157 .37300004 .161 .43700005 .161 .43700005 C .161 .441 .156 .44400005 .148 .44400005 C .120000008 .43300004 .08 .42400003 .011 .41500003 C .009 .409 .011 .39300005 .013 .38700003 C .068 .38200004 .07800001 .37600003 .07800001 .319 L .07800001 .124000009 C .07800001 .041 .067 .038000004 .006000001 .033 C 0 .027 0 .006 .006000001 0 C .039 .001 .07800001 .002 .118 .002 C .158 .002 .19600001 .001 .22900002 0 C .235 .006 .235 .027 .22900002 .033 C .168 .037 .157 .041 .157 .124000009 M .139 .673 L .06300001 .554 C .055000005 .541 .052000006 .537 .052000006 .526 C .052000006 .519 .059000005 .513 .066 .513 C .073 .513 .081 .517 .096 .532 L .21100001 .64100006 L .208 .652 C .185 .674 .15900001 .675 .153 .675 C .148 .675 .142 .674 .139 .673 Z "/>
</symbol>
<use xlink:href="#font_1_4e" transform="matrix(11.95517,0,0,-11.95517,124.224109,213.3286)"/>
<use xlink:href="#font_1_ad" transform="matrix(11.95517,0,0,-11.95517,133.7165,213.3286)"/>
<use xlink:href="#font_2_40" transform="matrix(25.84303,0,0,-25.84303,132.904,182.38738)"/>
<use xlink:href="#font_1_55" transform="matrix(11.95517,0,0,-11.95517,136.96788,213.42424)"/>
<use xlink:href="#font_1_55" transform="matrix(11.95517,0,0,-11.95517,140.74571,213.42424)"/>
<use xlink:href="#font_1_46" transform="matrix(11.95517,0,0,-11.95517,144.667,213.42424)"/>
<use xlink:href="#font_2_40" transform="matrix(25.84303,0,0,-25.84303,144.752,182.38738)"/>
<use xlink:href="#font_1_4f" transform="matrix(11.95517,0,0,-11.95517,153.4711,213.3286)"/>
<use xlink:href="#font_1_50" transform="matrix(11.95517,0,0,-11.95517,160.20186,213.42424)"/>
<use xlink:href="#font_1_e" transform="matrix(11.95517,0,0,-11.95517,166.21532,210.63869)"/>
<use xlink:href="#font_2_40" transform="matrix(25.84303,0,0,-25.84303,160.58,182.38738)"/>
<use xlink:href="#font_1_43" transform="matrix(11.95517,0,0,-11.95517,169.84973,213.44815)"/>
<use xlink:href="#font_1_4a" transform="matrix(11.95517,0,0,-11.95517,175.95883,213.3286)"/>
<use xlink:href="#font_1_54" transform="matrix(11.95517,0,0,-11.95517,179.48561,213.42424)"/>
<use xlink:href="#font_2_40" transform="matrix(25.84303,0,0,-25.84303,175.147,182.38738)"/>
<use xlink:href="#font_1_45" transform="matrix(11.95517,0,0,-11.95517,187.70526,213.4601)"/>
<use xlink:href="#font_1_a9" transform="matrix(11.95517,0,0,-11.95517,193.73067,213.42424)"/>
<use xlink:href="#font_1_e" transform="matrix(11.95517,0,0,-11.95517,199.1105,210.63869)"/>
<use xlink:href="#font_2_40" transform="matrix(25.84303,0,0,-25.84303,193.815,182.38738)"/>
<use xlink:href="#font_1_43" transform="matrix(11.95517,0,0,-11.95517,202.74474,213.44815)"/>
<use xlink:href="#font_1_4a" transform="matrix(11.95517,0,0,-11.95517,208.85382,213.3286)"/>
<use xlink:href="#font_1_e" transform="matrix(11.95517,0,0,-11.95517,212.28495,210.63869)"/>
<use xlink:href="#font_2_40" transform="matrix(25.84303,0,0,-25.84303,208.04199,182.38738)"/>
<use xlink:href="#font_1_55" transform="matrix(11.95517,0,0,-11.95517,216.14586,213.42424)"/>
<use xlink:href="#font_1_42" transform="matrix(11.95517,0,0,-11.95517,220.0552,213.42424)"/>
<use xlink:href="#font_2_40" transform="matrix(25.84303,0,0,-25.84303,220.212,182.38738)"/>
<use xlink:href="#font_1_4f" transform="matrix(11.95517,0,0,-11.95517,228.9921,213.3286)"/>
<use xlink:href="#font_1_50" transform="matrix(11.95517,0,0,-11.95517,235.72286,213.42424)"/>
<use xlink:href="#font_2_40" transform="matrix(25.84303,0,0,-25.84303,236.1,182.38738)"/>
<use xlink:href="#font_1_54" transform="matrix(11.95517,0,0,-11.95517,241.83185,213.42424)"/>
<use xlink:href="#font_1_55" transform="matrix(11.95517,0,0,-11.95517,246.21938,213.42424)"/>
<use xlink:href="#font_1_53" transform="matrix(11.95517,0,0,-11.95517,249.93744,213.3286)"/>
<use xlink:href="#font_1_42" transform="matrix(11.95517,0,0,-11.95517,254.57605,213.42424)"/>
<use xlink:href="#font_1_d" transform="matrix(11.95517,0,0,-11.95517,260.12324,214.89473)"/>
<use xlink:href="#font_2_40" transform="matrix(25.84303,0,0,-25.84303,254.732,182.38738)"/>
<use xlink:href="#font_2_2a" transform="matrix(25.84303,0,0,-25.84303,264.569,176.12049)"/>
<use xlink:href="#font_1_54" transform="matrix(11.95517,0,0,-11.95517,267.04386,213.42424)"/>
<use xlink:href="#font_1_4a" transform="matrix(11.95517,0,0,-11.95517,271.41944,213.3286)"/>
<use xlink:href="#font_1_e" transform="matrix(11.95517,0,0,-11.95517,274.85057,210.63869)"/>
<use xlink:href="#font_2_40" transform="matrix(25.84303,0,0,-25.84303,270.608,182.38738)"/>
<use xlink:href="#font_1_44" transform="matrix(11.95517,0,0,-11.95517,278.85636,213.42424)"/>
<use xlink:href="#font_1_56" transform="matrix(11.95517,0,0,-11.95517,283.76994,213.4601)"/>
<use xlink:href="#font_1_55" transform="matrix(11.95517,0,0,-11.95517,290.17793,213.42424)"/>
<use xlink:href="#font_2_40" transform="matrix(25.84303,0,0,-25.84303,284.559,182.38738)"/>
<use xlink:href="#font_1_46" transform="matrix(11.95517,0,0,-11.95517,297.76237,213.42424)"/>
<use xlink:href="#font_1_55" transform="matrix(11.95517,0,0,-11.95517,302.96287,213.42424)"/>
<use xlink:href="#font_2_40" transform="matrix(25.84303,0,0,-25.84303,297.847,182.38738)"/>
<use xlink:href="#font_2_14" transform="matrix(25.84303,0,0,-25.84303,308.64939,182.72335)"/>
<path transform="matrix(1,0,0,-1,1,226.30176)" stroke-width=".388" stroke-linecap="butt" stroke-miterlimit="10" stroke-linejoin="miter" fill="none" stroke="#000000" d="M 0 0 L 309.543 0 "/>
<path transform="matrix(1,0,0,-1,1,234.44239)" stroke-width=".388" stroke-linecap="butt" stroke-miterlimit="10" stroke-linejoin="miter" fill="none" stroke="#000000" d="M 0 0 L 309.543 0 "/>
<path transform="matrix(1,0,0,-1,1,242.58301)" stroke-width=".388" stroke-linecap="butt" stroke-miterlimit="10" stroke-linejoin="miter" fill="none" stroke="#000000" d="M 0 0 L 309.543 0 "/>
<path transform="matrix(1,0,0,-1,1,250.72266)" stroke-width=".388" stroke-linecap="butt" stroke-miterlimit="10" stroke-linejoin="miter" fill="none" stroke="#000000" d="M 0 0 L 309.543 0 "/>
<use xlink:href="#font_2_d" transform="matrix(25.84303,0,0,-25.84303,1,233.21439)"/>
<use xlink:href="#font_1_4f" transform="matrix(11.95517,0,0,-11.95517,4.7011015,268.1235)"/>
<use xlink:href="#font_1_50" transform="matrix(11.95517,0,0,-11.95517,11.431866,268.21916)"/>
<use xlink:href="#font_1_54" transform="matrix(11.95517,0,0,-11.95517,17.540959,268.21916)"/>
<use xlink:href="#font_2_40" transform="matrix(25.84303,0,0,-25.84303,11.808998,237.18132)"/>
<use xlink:href="#font_1_45" transform="matrix(11.95517,0,0,-11.95517,27.429249,268.25505)"/>
<use xlink:href="#font_1_4a" transform="matrix(11.95517,0,0,-11.95517,33.299238,268.1235)"/>
<use xlink:href="#font_2_40" transform="matrix(25.84303,0,0,-25.84303,32.487,237.18132)"/>
<use xlink:href="#font_1_4e" transform="matrix(11.95517,0,0,-11.95517,36.491106,268.1235)"/>
<use xlink:href="#font_1_ad" transform="matrix(11.95517,0,0,-11.95517,45.9835,268.1235)"/>
<use xlink:href="#font_1_55" transform="matrix(11.95517,0,0,-11.95517,49.23531,268.21916)"/>
<use xlink:href="#font_1_e" transform="matrix(11.95517,0,0,-11.95517,53.19247,265.4336)"/>
<use xlink:href="#font_2_40" transform="matrix(25.84303,0,0,-25.84303,45.171998,237.18132)"/>
<use xlink:href="#font_1_55" transform="matrix(11.95517,0,0,-11.95517,57.568883,268.21916)"/>
<use xlink:href="#font_1_4a" transform="matrix(11.95517,0,0,-11.95517,61.33476,268.1235)"/>
<use xlink:href="#font_2_40" transform="matrix(25.84303,0,0,-25.84303,60.522996,237.18132)"/>
<use xlink:href="#font_1_4e" transform="matrix(11.95517,0,0,-11.95517,64.52611,268.1235)"/>
<use xlink:href="#font_1_56" transform="matrix(11.95517,0,0,-11.95517,73.97069,268.25505)"/>
<use xlink:href="#font_1_54" transform="matrix(11.95517,0,0,-11.95517,80.65362,268.21916)"/>
<use xlink:href="#font_2_40" transform="matrix(25.84303,0,0,-25.84303,74.761,237.18132)"/>
<use xlink:href="#font_1_45" transform="matrix(11.95517,0,0,-11.95517,90.54226,268.25505)"/>
<use xlink:href="#font_1_46" transform="matrix(11.95517,0,0,-11.95517,96.567668,268.21916)"/>
<use xlink:href="#font_1_e" transform="matrix(11.95517,0,0,-11.95517,101.947498,265.4336)"/>
<use xlink:href="#font_2_40" transform="matrix(25.84303,0,0,-25.84303,96.65199,237.18132)"/>
<use xlink:href="#font_1_43" transform="matrix(11.95517,0,0,-11.95517,106.096729,268.24308)"/>
<use xlink:href="#font_1_4a" transform="matrix(11.95517,0,0,-11.95517,112.205829,268.1235)"/>
<use xlink:href="#font_1_e" transform="matrix(11.95517,0,0,-11.95517,115.63696,265.4336)"/>
<use xlink:href="#font_2_40" transform="matrix(25.84303,0,0,-25.84303,111.393009,237.18132)"/>
<use xlink:href="#font_1_55" transform="matrix(11.95517,0,0,-11.95517,120.012889,268.21916)"/>
<use xlink:href="#font_1_b3" transform="matrix(11.95517,0,0,-11.95517,123.982,268.21916)"/>
<use xlink:href="#font_1_e" transform="matrix(11.95517,0,0,-11.95517,129.99546,265.4336)"/>
<use xlink:href="#font_2_40" transform="matrix(25.84303,0,0,-25.84303,124.35899,237.18132)"/>
<use xlink:href="#font_1_53" transform="matrix(11.95517,0,0,-11.95517,134.31111,268.1235)"/>
<use xlink:href="#font_1_4a" transform="matrix(11.95517,0,0,-11.95517,138.80626,268.1235)"/>
<use xlink:href="#font_1_e" transform="matrix(11.95517,0,0,-11.95517,142.2374,265.4336)"/>
<use xlink:href="#font_2_40" transform="matrix(25.84303,0,0,-25.84303,137.994,241.25164)"/>
<use xlink:href="#font_1_43" transform="matrix(11.95517,0,0,-11.95517,146.38674,268.24308)"/>
<use xlink:href="#font_1_56" transform="matrix(11.95517,0,0,-11.95517,152.44802,268.25505)"/>
<use xlink:href="#font_1_54" transform="matrix(11.95517,0,0,-11.95517,159.13095,268.21916)"/>
<use xlink:href="#font_2_40" transform="matrix(25.84303,0,0,-25.84303,153.238,241.25164)"/>
<use xlink:href="#font_1_4f" transform="matrix(11.95517,0,0,-11.95517,168.7921,268.1235)"/>
<use xlink:href="#font_1_50" transform="matrix(11.95517,0,0,-11.95517,175.52286,268.21916)"/>
<use xlink:href="#font_2_40" transform="matrix(25.84303,0,0,-25.84303,175.9,237.18132)"/>
<use xlink:href="#font_1_54" transform="matrix(11.95517,0,0,-11.95517,181.63185,268.21916)"/>
<use xlink:href="#font_1_55" transform="matrix(11.95517,0,0,-11.95517,186.0194,268.21916)"/>
<use xlink:href="#font_1_53" transform="matrix(11.95517,0,0,-11.95517,189.73746,268.1235)"/>
<use xlink:href="#font_1_4a" transform="matrix(11.95517,0,0,-11.95517,194.2326,268.1235)"/>
<use xlink:href="#font_1_54" transform="matrix(11.95517,0,0,-11.95517,197.75937,268.21916)"/>
<use xlink:href="#font_1_1c" transform="matrix(11.95517,0,0,-11.95517,202.58925,269.68965)"/>
<use xlink:href="#font_2_40" transform="matrix(25.84303,0,0,-25.84303,193.42002,237.18132)"/>
<use xlink:href="#font_2_34" transform="matrix(25.84303,0,0,-25.84303,204.552,247.97083)"/>
<use xlink:href="#font_1_46" transform="matrix(11.95517,0,0,-11.95517,211.80034,268.21916)"/>
<use xlink:href="#font_1_55" transform="matrix(11.95517,0,0,-11.95517,217.00084,268.21916)"/>
<use xlink:href="#font_2_40" transform="matrix(25.84303,0,0,-25.84303,211.88501,241.25164)"/>
<use xlink:href="#font_1_4f" transform="matrix(11.95517,0,0,-11.95517,226.0521,268.1235)"/>
<use xlink:href="#font_1_46" transform="matrix(11.95517,0,0,-11.95517,232.73503,268.21916)"/>
<use xlink:href="#font_2_40" transform="matrix(25.84303,0,0,-25.84303,232.82,237.18132)"/>
<use xlink:href="#font_1_4f" transform="matrix(11.95517,0,0,-11.95517,243.2091,268.1235)"/>
<use xlink:href="#font_1_50" transform="matrix(11.95517,0,0,-11.95517,249.93987,268.21916)"/>
<use xlink:href="#font_1_54" transform="matrix(11.95517,0,0,-11.95517,256.04896,268.21916)"/>
<use xlink:href="#font_2_40" transform="matrix(25.84303,0,0,-25.84303,250.318,237.18132)"/>
<use xlink:href="#font_1_4a" transform="matrix(11.95517,0,0,-11.95517,265.75794,268.1235)"/>
<use xlink:href="#font_2_40" transform="matrix(25.84303,0,0,-25.84303,264.946,237.18132)"/>
<use xlink:href="#font_1_4f" transform="matrix(11.95517,0,0,-11.95517,268.9501,268.1235)"/>
<use xlink:href="#font_1_45" transform="matrix(11.95517,0,0,-11.95517,275.65696,268.25505)"/>
<use xlink:href="#font_1_ba" transform="matrix(11.95517,0,0,-11.95517,281.47914,268.25505)"/>
<use xlink:href="#font_1_e" transform="matrix(11.95517,0,0,-11.95517,288.06645,265.4336)"/>
<use xlink:href="#font_2_40" transform="matrix(25.84303,0,0,-25.84303,282.269,237.18132)"/>
<use xlink:href="#font_1_44" transform="matrix(11.95517,0,0,-11.95517,292.58638,268.21916)"/>
<use xlink:href="#font_1_42" transform="matrix(11.95517,0,0,-11.95517,297.69123,268.21916)"/>
<use xlink:href="#font_1_54" transform="matrix(11.95517,0,0,-11.95517,303.2982,268.21916)"/>
<use xlink:href="#font_2_40" transform="matrix(25.84303,0,0,-25.84303,297.847,237.18132)"/>
<use xlink:href="#font_2_14" transform="matrix(25.84303,0,0,-25.84303,308.64939,237.51729)"/>
<path transform="matrix(1,0,0,-1,1,281.0957)" stroke-width=".388" stroke-linecap="butt" stroke-miterlimit="10" stroke-linejoin="miter" fill="none" stroke="#000000" d="M 0 0 L 309.543 0 "/>
<path transform="matrix(1,0,0,-1,1,289.2373)" stroke-width=".388" stroke-linecap="butt" stroke-miterlimit="10" stroke-linejoin="miter" fill="none" stroke="#000000" d="M 0 0 L 309.543 0 "/>
<path transform="matrix(1,0,0,-1,1,297.37696)" stroke-width=".388" stroke-linecap="butt" stroke-miterlimit="10" stroke-linejoin="miter" fill="none" stroke="#000000" d="M 0 0 L 309.543 0 "/>
<path transform="matrix(1,0,0,-1,1,305.51759)" stroke-width=".388" stroke-linecap="butt" stroke-miterlimit="10" stroke-linejoin="miter" fill="none" stroke="#000000" d="M 0 0 L 309.543 0 "/>
<use xlink:href="#font_2_d" transform="matrix(25.84303,0,0,-25.84303,1,288.00834)"/>
<use xlink:href="#font_1_4a" transform="matrix(11.95517,0,0,-11.95517,12.621923,322.91746)"/>
<use xlink:href="#font_1_4f" transform="matrix(11.95517,0,0,-11.95517,15.813955,322.91746)"/>
<use xlink:href="#font_2_40" transform="matrix(25.84303,0,0,-25.84303,11.808998,291.97627)"/>
<use xlink:href="#font_1_55" transform="matrix(11.95517,0,0,-11.95517,27.17188,323.0131)"/>
<use xlink:href="#font_1_46" transform="matrix(11.95517,0,0,-11.95517,31.093174,323.0131)"/>
<use xlink:href="#font_2_40" transform="matrix(25.84303,0,0,-25.84303,31.178002,291.97627)"/>
<use xlink:href="#font_1_4f" transform="matrix(11.95517,0,0,-11.95517,36.234109,322.91746)"/>
<use xlink:href="#font_1_55" transform="matrix(11.95517,0,0,-11.95517,42.773588,323.0131)"/>
<use xlink:href="#font_1_42" transform="matrix(11.95517,0,0,-11.95517,46.682928,323.0131)"/>
<use xlink:href="#font_1_e" transform="matrix(11.95517,0,0,-11.95517,52.194265,320.22755)"/>
<use xlink:href="#font_2_40" transform="matrix(25.84303,0,0,-25.84303,46.838998,296.04658)"/>
<use xlink:href="#font_1_55" transform="matrix(11.95517,0,0,-11.95517,56.05588,323.0131)"/>
<use xlink:href="#font_1_4a" transform="matrix(11.95517,0,0,-11.95517,59.82176,322.91746)"/>
<use xlink:href="#font_1_e" transform="matrix(11.95517,0,0,-11.95517,63.252897,320.22755)"/>
<use xlink:href="#font_2_40" transform="matrix(25.84303,0,0,-25.84303,59.009004,291.97627)"/>
<use xlink:href="#font_1_b3" transform="matrix(11.95517,0,0,-11.95517,69.72517,323.0131)"/>
<use xlink:href="#font_1_e" transform="matrix(11.95517,0,0,-11.95517,75.73862,320.22755)"/>
<symbol id="font_2_1b3">
<path d="M 0 .020999998 L 0 .48000003 C 0 .512 .028000003 .528 .08400001 .528 C .11200001 .528 .13266666 .524 .14600002 .51600006 C .15933335 .508 .16600001 .49600003 .16600001 .48000003 L .16600001 .326 C .17 .3526667 .19733334 .36600004 .24800001 .36600004 C .30400003 .36600004 .33200003 .35033337 .33200003 .319 L .33200003 .16200002 C .314 .18 .28633336 .18900001 .24900002 .18900001 C .21166666 .18900001 .18400002 .18 .16600001 .16200002 L .16600001 .323 C .14866667 .34033335 .121 .349 .083000008 .349 C .056333335 .349 .03466667 .3416667 .018000002 .32700003 L .018000002 .04699999 C .018000002 .035000009 .017666668 .026000014 .017 .02000001 C .017 .014000009 .016666668 .009666671 .016 .0069999995 C .016 .0036666692 .015666668 .001666675 .015000001 .0010000169 C .014333334 .00033333899 .013 0 .011000001 0 C .008333334 .00066667798 .0060000007 .002000014 .004 .004000008 C .0026666669 .005333344 .0016666668 .0076666774 .001 .011000007 C .00033333337 .013666679 0 .01700001 0 .020999998 Z "/>
</symbol>
<use xlink:href="#font_2_1b3" transform="matrix(25.84303,0,0,-25.84303,70.103,300.22019)"/>
<use xlink:href="#font_1_4f" transform="matrix(11.95517,0,0,-11.95517,79.5401,322.91746)"/>
<use xlink:href="#font_1_46" transform="matrix(11.95517,0,0,-11.95517,86.223049,323.0131)"/>
<use xlink:href="#font_1_4e" transform="matrix(11.95517,0,0,-11.95517,91.36377,322.91746)"/>
<use xlink:href="#font_1_d" transform="matrix(11.95517,0,0,-11.95517,101.08331,324.48359)"/>
<use xlink:href="#font_2_40" transform="matrix(25.84303,0,0,-25.84303,86.308,296.04658)"/>
<use xlink:href="#font_2_26" transform="matrix(25.84303,0,0,-25.84303,100.13402,305.686)"/>
<use xlink:href="#font_2_26" transform="matrix(25.84303,0,0,-25.84303,103.7262,305.686)"/>
<use xlink:href="#font_1_54" transform="matrix(11.95517,0,0,-11.95517,109.15885,323.0131)"/>
<use xlink:href="#font_1_46" transform="matrix(11.95517,0,0,-11.95517,113.68987,323.0131)"/>
<use xlink:href="#font_1_45" transform="matrix(11.95517,0,0,-11.95517,119.141429,323.04899)"/>
<use xlink:href="#font_2_40" transform="matrix(25.84303,0,0,-25.84303,113.774997,296.04658)"/>
<use xlink:href="#font_1_4d" transform="matrix(11.95517,0,0,-11.95517,129.74724,322.91746)"/>
<use xlink:href="#font_1_ad" transform="matrix(11.95517,0,0,-11.95517,132.98709,322.91746)"/>
<use xlink:href="#font_1_e" transform="matrix(11.95517,0,0,-11.95517,136.41823,320.22755)"/>
<use xlink:href="#font_2_40" transform="matrix(25.84303,0,0,-25.84303,132.175,291.97627)"/>
<use xlink:href="#font_1_43" transform="matrix(11.95517,0,0,-11.95517,140.05274,323.03703)"/>
<use xlink:href="#font_1_46" transform="matrix(11.95517,0,0,-11.95517,146.4368,323.0131)"/>
<use xlink:href="#font_1_e" transform="matrix(11.95517,0,0,-11.95517,151.81664,320.22755)"/>
<use xlink:href="#font_2_40" transform="matrix(25.84303,0,0,-25.84303,146.521,291.97627)"/>
<use xlink:href="#font_1_53" transform="matrix(11.95517,0,0,-11.95517,155.6181,322.91746)"/>
<use xlink:href="#font_1_42" transform="matrix(11.95517,0,0,-11.95517,160.25672,323.0131)"/>
<use xlink:href="#font_2_40" transform="matrix(25.84303,0,0,-25.84303,160.413,291.97627)"/>
<use xlink:href="#font_1_4f" transform="matrix(11.95517,0,0,-11.95517,170.3481,322.91746)"/>
<use xlink:href="#font_1_50" transform="matrix(11.95517,0,0,-11.95517,177.07886,323.0131)"/>
<use xlink:href="#font_1_54" transform="matrix(11.95517,0,0,-11.95517,183.18796,323.0131)"/>
<use xlink:href="#font_2_40" transform="matrix(25.84303,0,0,-25.84303,177.456,296.04658)"/>
<use xlink:href="#font_1_42" transform="matrix(11.95517,0,0,-11.95517,192.52539,323.0131)"/>
<use xlink:href="#font_2_40" transform="matrix(25.84303,0,0,-25.84303,192.682,296.04658)"/>
<symbol id="font_1_2e">
<path d="M .64900007 .126 C .65400007 .045 .65000006 .044000005 .58500006 .041 C .57900008 .035 .57900008 .014 .58500006 .008 C .62200006 .009000001 .66200008 .010000001 .69200006 .010000001 C .72200009 .010000001 .76800009 .009000001 .80100008 .008 C .80700007 .014 .80700007 .035 .80100008 .041 C .73300006 .044000005 .73 .048000006 .72400006 .13100001 L .694 .55200007 C .69000008 .606 .69500008 .62 .763 .624 C .76900008 .63 .76900008 .651 .763 .657 L .632 .65500006 L .42000003 .14800002 C .416 .13800001 .41300003 .134 .411 .134 C .409 .134 .40600003 .13900002 .40300004 .14700002 L .19800002 .65500006 L .053000004 .657 C .047000007 .651 .047000007 .63 .053000004 .624 C .12200001 .62 .128 .61800006 .12100001 .54300007 L .08100001 .13100001 C .075 .071 .06300001 .046000005 .006000001 .041 C 0 .035 0 .014 .006000001 .008 C .036 .009000001 .068 .010000001 .09200001 .010000001 C .11600001 .010000001 .156 .009000001 .186 .008 C .19200002 .014 .19200002 .035 .186 .041 C .120000008 .046000005 .11500001 .077 .120000008 .133 L .158 .53400006 L .16000001 .53400006 L .367 .015000001 C .37 .008 .37600003 0 .38200004 0 C .388 0 .39200003 .0070000009 .39600004 .015000001 L .62100008 .544 L .623 .544 L .64900007 .126 Z "/>
</symbol>
<use xlink:href="#font_1_2e" transform="matrix(11.95517,0,0,-11.95517,202.54439,323.0131)"/>
<use xlink:href="#font_1_42" transform="matrix(11.95517,0,0,-11.95517,212.8378,323.0131)"/>
<use xlink:href="#font_1_e" transform="matrix(11.95517,0,0,-11.95517,218.34912,320.22755)"/>
<use xlink:href="#font_2_40" transform="matrix(25.84303,0,0,-25.84303,212.995,291.97627)"/>
<use xlink:href="#font_1_4d" transform="matrix(11.95517,0,0,-11.95517,222.11522,322.91746)"/>
<use xlink:href="#font_1_50" transform="matrix(11.95517,0,0,-11.95517,225.5583,323.0131)"/>
<use xlink:href="#font_1_f" transform="matrix(11.95517,0,0,-11.95517,231.77498,323.0131)"/>
<use xlink:href="#font_2_40" transform="matrix(25.84303,0,0,-25.84303,225.936,291.97627)"/>
<use xlink:href="#font_2_26" transform="matrix(25.84303,0,0,-25.84303,238.49399,305.686)"/>
<use xlink:href="#font_2_26" transform="matrix(25.84303,0,0,-25.84303,242.08618,305.686)"/>
</g>
</g>
</svg>
